<svg width="53" height="64" viewBox="0 0 53 64" fill="none" xmlns="http://www.w3.org/2000/svg">
<path d="M40.056 23.1661C40.056 20.4957 39.2573 17.8853 37.7609 15.6649C36.2645 13.4446 34.1376 11.714 31.6492 10.6921C29.1607 9.67016 26.4225 9.40278 23.7808 9.92375C21.1391 10.4447 18.7125 11.7306 16.808 13.6189C14.9034 15.5072 13.6064 17.9129 13.0809 20.532C12.5554 23.1511 12.8251 25.8659 13.8559 28.333C14.8866 30.8001 16.6321 32.9088 18.8716 34.3924C21.1112 35.876 23.7442 36.6679 26.4376 36.6679C30.0495 36.6679 33.5134 35.2454 36.0673 32.7133C38.6212 30.1812 40.056 26.747 40.056 23.1661ZM26.4376 34.4176C24.1931 34.4176 21.9989 33.7577 20.1326 32.5214C18.2664 31.2851 16.8118 29.5278 15.9528 27.4719C15.0939 25.4159 14.8691 23.1536 15.307 20.971C15.7449 18.7885 16.8258 16.7836 18.4129 15.2101C20 13.6365 22.0222 12.5649 24.2236 12.1308C26.425 11.6967 28.7069 11.9195 30.7806 12.7711C32.8543 13.6227 34.6267 15.0648 35.8737 16.9151C37.1207 18.7654 37.7863 20.9408 37.7863 23.1661C37.7863 26.1502 36.5906 29.0121 34.4624 31.1221C32.3341 33.2322 29.4475 34.4176 26.4376 34.4176Z" fill="white"/>
<path d="M52.8346 57.3034L42.9386 35.6105C43.2631 35.5343 43.5787 35.4249 43.8805 35.2842C44.5853 34.9458 45.1957 34.4411 45.6582 33.8145C46.1206 33.1879 46.421 32.4584 46.533 31.6899C46.645 30.9214 46.5652 30.1375 46.3006 29.4067C46.036 28.6759 45.5947 28.0206 45.0154 27.4981C46.0394 27.1524 46.9151 26.4732 47.5001 25.5711C48.0851 24.6689 48.3447 23.597 48.2368 22.5299C48.1289 21.4627 47.6598 20.4633 46.9059 19.6942C46.152 18.9251 45.1576 18.4317 44.0848 18.2944C44.6597 18.0056 45.1699 17.6047 45.5849 17.1158C45.9998 16.6268 46.311 16.0598 46.4996 15.4488C46.6883 14.8378 46.7506 14.1953 46.6829 13.5599C46.6151 12.9244 46.4187 12.309 46.1054 11.7506C45.7921 11.1922 45.3683 10.7023 44.8594 10.3101C44.3505 9.91793 43.767 9.63165 43.1439 9.46838C42.5208 9.30511 41.8708 9.26822 41.233 9.35993C40.5951 9.45163 39.9825 9.67004 39.4318 10.0021L39.2956 9.86705C39.9056 8.79017 40.0673 7.51965 39.7461 6.32632C39.4249 5.13298 38.6463 4.11121 37.5763 3.47879C36.5062 2.84636 35.2294 2.65331 34.0178 2.94077C32.8063 3.22823 31.7559 3.97348 31.0905 5.01766C31.0401 3.79898 30.5185 2.64629 29.6339 1.79858C28.7494 0.950873 27.5697 0.473157 26.3395 0.464476C25.1093 0.455795 23.9229 0.916815 23.0263 1.75196C22.1297 2.5871 21.5916 3.7323 21.5236 4.95015C20.893 3.85052 19.8477 3.04427 18.6176 2.70876C17.3874 2.37326 16.0732 2.536 14.9641 3.16116C13.8549 3.78633 13.0417 4.82272 12.7033 6.04233C12.3649 7.26195 12.5291 8.56489 13.1596 9.66453L13.0575 9.76579C12.7848 9.60168 12.4958 9.46594 12.195 9.36073C11.0843 9.03047 9.89055 9.11092 8.83518 9.58715C7.77982 10.0634 6.93457 10.9031 6.45632 11.9503C5.97807 12.9976 5.8993 14.1813 6.23462 15.2818C6.56995 16.3823 7.2966 17.3248 8.2797 17.9344C7.08538 17.9955 5.95734 18.4975 5.11743 19.3415C4.27752 20.1856 3.78652 21.3106 3.741 22.4954C3.69547 23.6803 4.09871 24.8391 4.87142 25.744C5.64412 26.649 6.73037 27.2346 7.91655 27.3856C7.1389 27.9217 6.53997 28.6753 6.1962 29.5503C5.85242 30.4253 5.77938 31.3821 5.98639 32.2984C6.1934 33.2147 6.67109 34.0491 7.35848 34.6952C8.04588 35.3412 8.91182 35.7695 9.84582 35.9255L0.0859603 57.3034C-0.00318577 57.5062 -0.0236494 57.7322 0.0276333 57.9476C0.0789159 58.1629 0.199185 58.356 0.37043 58.4979C0.541675 58.6398 0.754679 58.7229 0.977544 58.7347C1.20041 58.7466 1.42114 58.6865 1.60668 58.5635L9.74368 53.0165L11.3892 62.9854C11.4263 63.2014 11.5322 63.4 11.6916 63.5519C11.8509 63.7038 12.0552 63.801 12.2744 63.8292H12.4106C12.6088 63.8299 12.803 63.774 12.97 63.6683C13.137 63.5626 13.2698 63.4114 13.3526 63.2329L22.6131 42.9802C23.0791 43.5522 23.6735 44.0083 24.349 44.3118C25.0245 44.6154 25.7622 44.7582 26.5032 44.7287C27.2443 44.6991 27.9681 44.4982 28.6168 44.1418C29.2655 43.7855 29.8212 43.2837 30.2394 42.6764L39.6474 63.2779C39.7302 63.4564 39.863 63.6076 40.03 63.7133C40.197 63.819 40.3912 63.8749 40.5894 63.8742H40.7256C40.9448 63.846 41.1491 63.7488 41.3084 63.5969C41.4678 63.445 41.5737 63.2464 41.6108 63.0304L43.2563 53.0615L51.3933 58.6085C51.5789 58.7315 51.7996 58.7916 52.0225 58.7798C52.2453 58.7679 52.4583 58.6848 52.6296 58.5429C52.8008 58.401 52.9211 58.208 52.9724 57.9926C53.0237 57.7772 53.0032 57.5512 52.914 57.3484L52.8346 57.3034ZM12.8192 59.3286L11.4687 51.1038C11.4398 50.9345 11.3684 50.7751 11.2612 50.6403C11.1539 50.5055 11.0141 50.3997 10.8548 50.3324C10.6954 50.2652 10.5216 50.2388 10.3492 50.2556C10.1769 50.2724 10.0116 50.3319 9.86852 50.4287L3.44517 54.8055L12.1383 35.7567H12.2063C12.4487 35.6743 12.684 35.5728 12.91 35.4529L13.0802 35.6217C12.5382 36.6984 12.4298 37.9392 12.7771 39.0923C13.1243 40.2453 13.9012 41.2241 14.9499 41.8298C15.9986 42.4356 17.2405 42.623 18.4235 42.3539C19.6065 42.0849 20.6418 41.3795 21.3193 40.3811H21.4782L12.8192 59.3286ZM28.7754 39.9535C28.7754 40.616 28.51 41.2513 28.0375 41.7198C27.565 42.1882 26.9242 42.4514 26.256 42.4514C25.5878 42.4514 24.947 42.1882 24.4745 41.7198C24.002 41.2513 23.7366 40.616 23.7366 39.9535C23.733 39.8973 23.733 39.841 23.7366 39.7848V39.6498C23.768 39.3714 23.6934 39.0914 23.5276 38.8646C23.3618 38.6378 23.1167 38.4804 22.8401 38.4233C22.2372 38.2965 21.6423 38.1349 21.0583 37.9395C20.784 37.8505 20.4858 37.8684 20.2244 37.9897C19.963 38.1109 19.758 38.3263 19.6511 38.5921C19.528 38.911 19.3396 39.2012 19.0979 39.4444C18.8562 39.6876 18.5664 39.8787 18.2466 40.0055C17.9269 40.1323 17.5841 40.1921 17.2399 40.1812C16.8957 40.1704 16.5574 40.089 16.2465 39.9423C15.9049 39.7789 15.6051 39.5408 15.3697 39.2459C15.1343 38.951 14.9694 38.6071 14.8875 38.2399C14.8056 37.8727 14.8087 37.4919 14.8967 37.1261C14.9846 36.7603 15.1551 36.4191 15.3953 36.128C15.5772 35.904 15.6656 35.6194 15.6423 35.3327C15.6191 35.046 15.4861 34.779 15.2705 34.5866C14.8051 34.1548 14.3656 33.6965 13.954 33.2139C13.8555 33.1016 13.7354 33.0097 13.6007 32.9437C13.466 32.8778 13.3195 32.8389 13.1696 32.8295C13.0197 32.8201 12.8694 32.8403 12.7274 32.8889C12.5855 32.9375 12.4546 33.0135 12.3425 33.1126C12.0669 33.3567 11.7405 33.5376 11.3865 33.6427C11.0324 33.7477 10.6594 33.7742 10.2939 33.7203C9.9284 33.6665 9.5793 33.5335 9.27137 33.331C8.96345 33.1284 8.70425 32.8612 8.51213 32.5482C8.32002 32.2352 8.1997 31.8842 8.15971 31.52C8.11972 31.1557 8.16103 30.7872 8.28072 30.4406C8.40041 30.094 8.59554 29.7777 8.85229 29.5142C9.10904 29.2507 9.42111 29.0464 9.76638 28.9158H9.94796C10.0925 28.8734 10.2272 28.8029 10.3439 28.7084C10.4607 28.6138 10.5573 28.4971 10.6281 28.3651C10.6989 28.2332 10.7425 28.0885 10.7562 27.9396C10.77 27.7908 10.7537 27.6407 10.7083 27.4981C10.5608 27.0368 10.436 26.5418 10.3225 26.0242C10.2621 25.7364 10.0906 25.4835 9.8446 25.3195C9.59858 25.1555 9.29759 25.0934 9.00602 25.1466C8.63993 25.2208 8.26177 25.2133 7.89895 25.1248C7.53612 25.0362 7.19771 24.8687 6.90823 24.6345C6.61875 24.4002 6.38546 24.105 6.22525 23.7704C6.06503 23.4357 5.98192 23.0698 5.98192 22.6994C5.98192 22.3289 6.06503 21.9631 6.22525 21.6284C6.38546 21.2937 6.61875 20.9986 6.90823 20.7643C7.19771 20.5301 7.53612 20.3626 7.89895 20.274C8.26177 20.1854 8.63993 20.178 9.00602 20.2522C9.29759 20.3054 9.59858 20.2433 9.8446 20.0793C10.0906 19.9153 10.2621 19.6623 10.3225 19.3746C10.4452 18.8 10.6006 18.2328 10.7878 17.6756C10.8363 17.5302 10.8544 17.3764 10.8409 17.2238C10.8274 17.0713 10.7827 16.923 10.7093 16.7882C10.636 16.6533 10.5357 16.5347 10.4145 16.4397C10.2934 16.3446 10.1539 16.2751 10.0047 16.2354H9.82312C9.46201 16.1154 9.13306 15.9157 8.86099 15.6515C8.58892 15.3872 8.38081 15.0652 8.25233 14.7098C8.12385 14.3543 8.07833 13.9746 8.11919 13.5992C8.16005 13.2237 8.28624 12.8624 8.48826 12.5423C8.69028 12.2221 8.96287 11.9516 9.28554 11.751C9.60821 11.5504 9.97255 11.4249 10.3512 11.384C10.7298 11.3431 11.1129 11.3879 11.4715 11.5149C11.8302 11.6419 12.1552 11.8479 12.422 12.1174C12.532 12.2258 12.6633 12.3106 12.8078 12.3668C12.9522 12.4229 13.1067 12.4491 13.2618 12.4436C13.4171 12.4388 13.5698 12.4023 13.7104 12.3365C13.8509 12.2707 13.9764 12.1769 14.0789 12.0611C14.5085 11.5803 14.9671 11.1257 15.4521 10.6997C15.5646 10.6011 15.6563 10.4815 15.7218 10.3476C15.7874 10.2137 15.8255 10.0682 15.8339 9.9196C15.8424 9.771 15.821 9.62221 15.771 9.48186C15.7211 9.34151 15.6435 9.21238 15.5429 9.10195C15.2796 8.83191 15.0814 8.50625 14.9632 8.14942C14.8451 7.79259 14.81 7.41385 14.8606 7.04164C14.9112 6.66943 15.0461 6.31342 15.2554 6.00033C15.4646 5.68725 15.7427 5.42522 16.0687 5.23392C16.3947 5.04262 16.7601 4.92701 17.1376 4.89579C17.5151 4.86456 17.8949 4.91852 18.2483 5.05362C18.6018 5.18872 18.9198 5.40144 19.1785 5.67583C19.4371 5.95021 19.6298 6.27912 19.7419 6.63787C19.787 6.7792 19.8598 6.91028 19.9562 7.0236C20.0526 7.13693 20.1706 7.23025 20.3035 7.29821C20.4364 7.36617 20.5815 7.40743 20.7305 7.41961C20.8795 7.4318 21.0295 7.41468 21.1718 7.36922C21.7379 7.18741 22.3138 7.03715 22.8968 6.91916C23.1894 6.85943 23.4465 6.6877 23.6122 6.44125C23.7779 6.1948 23.8389 5.89351 23.782 5.60274C23.7156 5.25968 23.7224 4.90663 23.8022 4.56638C23.882 4.22613 24.0328 3.90624 24.245 3.62739C24.4572 3.34853 24.7261 3.11691 25.0342 2.94747C25.3423 2.77803 25.6828 2.67455 26.0338 2.64371C26.3847 2.61287 26.7383 2.65535 27.0717 2.76842C27.4051 2.88148 27.7108 3.06262 27.9692 3.30012C28.2275 3.53762 28.4328 3.82621 28.5717 4.14725C28.7105 4.46829 28.7799 4.81464 28.7754 5.16393C28.7929 5.33225 28.7929 5.50192 28.7754 5.67025C28.7149 5.96109 28.7727 6.26387 28.9364 6.51258C29.1001 6.76129 29.3564 6.93575 29.6493 6.99792C30.2289 7.12378 30.801 7.28154 31.3629 7.47048C31.6415 7.56156 31.9449 7.54213 32.2094 7.41627C32.4739 7.29041 32.6789 7.06789 32.7815 6.79539C32.9072 6.45192 33.1078 6.14014 33.3689 5.88225C33.63 5.62435 33.9452 5.42668 34.2921 5.30329C34.639 5.1799 35.0091 5.13383 35.376 5.16835C35.7429 5.20288 36.0977 5.31716 36.415 5.50305C36.7323 5.68894 37.0044 5.94188 37.2118 6.24387C37.4193 6.54586 37.5572 6.88948 37.6155 7.25028C37.6738 7.61107 37.6512 7.98018 37.5493 8.33134C37.4474 8.6825 37.2687 9.00708 37.0259 9.28197C36.8438 9.49424 36.7476 9.76595 36.756 10.0445C36.7644 10.323 36.8768 10.5886 37.0713 10.7897C37.553 11.2233 38.0078 11.6855 38.4331 12.1736C38.5333 12.2902 38.6565 12.3852 38.795 12.4529C38.9336 12.5206 39.0846 12.5596 39.2389 12.5674C39.3923 12.5758 39.5459 12.5532 39.6902 12.501C39.8346 12.4487 39.9667 12.368 40.0787 12.2636C40.35 12.0051 40.6764 11.8104 41.0339 11.6939C41.3914 11.5775 41.7708 11.5423 42.1438 11.591C42.5169 11.6396 42.8742 11.7709 43.1891 11.975C43.5041 12.1791 43.7687 12.4509 43.9633 12.7702C44.1579 13.0895 44.2776 13.4481 44.3134 13.8195C44.3493 14.1908 44.3004 14.5654 44.1703 14.9155C44.0403 15.2656 43.8325 15.5822 43.5623 15.8418C43.2921 16.1015 42.9664 16.2975 42.6094 16.4154H42.4392C42.2893 16.4528 42.1486 16.5202 42.0258 16.6134C41.9031 16.7066 41.8009 16.8237 41.7254 16.9576C41.65 17.0914 41.6029 17.239 41.5871 17.3915C41.5713 17.544 41.587 17.6981 41.6335 17.8444C41.81 18.4096 41.954 18.9844 42.0647 19.5658C42.1171 19.84 42.2704 20.0851 42.4948 20.2535C42.7192 20.4219 42.9987 20.5016 43.279 20.4772H43.506C44.1742 20.4772 44.815 20.7404 45.2875 21.2088C45.76 21.6772 46.0254 22.3126 46.0254 22.975C46.0254 23.6375 45.76 24.2728 45.2875 24.7413C44.815 25.2097 44.1742 25.4729 43.506 25.4729H43.1882C42.9088 25.438 42.6263 25.5073 42.3956 25.6674C42.1649 25.8276 42.0024 26.067 41.9399 26.3392C41.8718 26.643 41.7923 26.9356 41.7129 27.2281C41.6697 27.3714 41.6557 27.5218 41.6718 27.6706C41.6879 27.8193 41.7337 27.9634 41.8066 28.0943C41.8795 28.2253 41.978 28.3405 42.0964 28.4333C42.2148 28.526 42.3506 28.5945 42.496 28.6345H42.6548C43.1392 28.7914 43.5643 29.0902 43.8739 29.4915C44.1834 29.8929 44.363 30.3778 44.3888 30.8824C44.4146 31.387 44.2855 31.8875 44.0185 32.3178C43.7514 32.7481 43.3591 33.088 42.8932 33.2927C42.4524 33.5072 41.9574 33.5875 41.4706 33.5235C40.9839 33.4594 40.5272 33.2538 40.1581 32.9326C40.0446 32.8348 39.9126 32.7604 39.7698 32.7137C39.627 32.6669 39.4762 32.6487 39.3263 32.6603C39.1763 32.6718 39.0302 32.7127 38.8963 32.7807C38.7625 32.8487 38.6436 32.9424 38.5466 33.0564C38.1237 33.536 37.6728 33.9906 37.1961 34.4178C36.99 34.6088 36.8631 34.869 36.84 35.1478C36.8169 35.4265 36.8994 35.7038 37.0713 35.9255C37.2987 36.2034 37.4633 36.5264 37.5538 36.8728C37.6444 37.2192 37.6588 37.5808 37.5961 37.9332C37.5335 38.2856 37.3951 38.6205 37.1906 38.9153C36.986 39.2101 36.7199 39.4579 36.4104 39.6418C36.1008 39.8258 35.755 39.9417 35.3963 39.9817C35.0377 40.0216 34.6746 39.9847 34.3315 39.8735C33.9885 39.7622 33.6736 39.5791 33.4081 39.3367C33.1427 39.0943 32.9328 38.7982 32.7928 38.4683C32.6758 38.2154 32.4683 38.0144 32.2105 37.9043C31.9527 37.7941 31.6628 37.7826 31.397 37.872C30.817 38.0708 30.2258 38.2361 29.6266 38.3671C29.3403 38.4485 29.0938 38.6304 28.933 38.8789C28.7722 39.1274 28.7081 39.4254 28.7527 39.7173C28.766 39.7954 28.7736 39.8743 28.7754 39.9535ZM43.0066 50.4287C42.8636 50.3319 42.6983 50.2724 42.5259 50.2556C42.3536 50.2388 42.1797 50.2652 42.0204 50.3324C41.861 50.3997 41.7213 50.5055 41.614 50.6403C41.5067 50.7751 41.4354 50.9345 41.4065 51.1038L40.056 59.3286L31.5104 40.5949C32.0432 41.1978 32.7231 41.6549 33.4851 41.9226C34.3743 42.229 35.3348 42.2689 36.2466 42.0371C37.1585 41.8054 37.9813 41.3124 38.6121 40.6197C39.243 39.9271 39.654 39.0654 39.7937 38.1425C39.9334 37.2195 39.7957 36.2762 39.3978 35.4305L39.602 35.2167C39.7998 35.3175 40.0046 35.404 40.2149 35.4755C40.3624 35.4755 40.5099 35.543 40.6575 35.588L49.43 54.8055L43.0066 50.4287Z" fill="white"/>
<path d="M35.8797 20.0269C35.8157 19.8248 35.6955 19.6447 35.5329 19.5074C35.3702 19.3701 35.1718 19.281 34.9604 19.2505L29.5698 18.4966L27.1639 13.7935C27.0687 13.6092 26.924 13.4546 26.7458 13.3465C26.5676 13.2385 26.3627 13.1814 26.1539 13.1814C25.945 13.1814 25.7402 13.2385 25.562 13.3465C25.3838 13.4546 25.2391 13.6092 25.1438 13.7935L22.7379 18.4966L17.3586 19.2505C17.1461 19.2791 16.9461 19.3668 16.7818 19.5035C16.6175 19.6402 16.4956 19.8202 16.4303 20.0227C16.3649 20.2253 16.3588 20.442 16.4127 20.6479C16.4665 20.8537 16.5781 21.0402 16.7345 21.1858L20.6157 24.8425L19.6284 29.9957C19.5927 30.2015 19.6156 30.413 19.6943 30.6067C19.773 30.8003 19.9045 30.9684 20.0741 31.0922C20.2437 31.216 20.4447 31.2905 20.6546 31.3075C20.8645 31.3245 21.075 31.2832 21.2626 31.1883L26.1539 28.7918L30.9771 31.1883C31.1646 31.2832 31.3752 31.3245 31.5851 31.3075C31.795 31.2905 31.9959 31.216 32.1655 31.0922C32.3351 30.9684 32.4666 30.8003 32.5454 30.6067C32.6241 30.413 32.6469 30.2015 32.6113 29.9957L31.692 24.8425L35.5733 21.1858C35.7293 21.0408 35.8408 20.8551 35.895 20.6501C35.9492 20.4451 35.9439 20.229 35.8797 20.0269ZM29.6947 23.6273C29.5578 23.755 29.455 23.9143 29.3956 24.0911C29.3362 24.2678 29.3219 24.4564 29.3542 24.64L29.9784 28.1617L26.6646 26.474C26.5047 26.393 26.3277 26.3507 26.1482 26.3507C25.9687 26.3507 25.7917 26.393 25.6318 26.474L22.318 28.1617L22.9422 24.64C22.9744 24.4564 22.9602 24.2678 22.9008 24.0911C22.8414 23.9143 22.7386 23.755 22.6017 23.6273L19.9802 21.1633L23.6345 20.6457C23.8152 20.6198 23.9869 20.551 24.1351 20.4452C24.2833 20.3395 24.4035 20.1998 24.4856 20.0381L26.1425 16.7864L27.7994 20.0381C27.8815 20.1998 28.0018 20.3395 28.15 20.4452C28.2981 20.551 28.4699 20.6198 28.6506 20.6457L32.3048 21.1633L29.6947 23.6273Z" fill="white"/>
</svg>
