<svg width="49" height="71" viewBox="0 0 49 71" fill="none" xmlns="http://www.w3.org/2000/svg">
<mask id="path-1-outside-1_508_2769" maskUnits="userSpaceOnUse" x="0" y="-0.677246" width="49" height="71" fill="black">
<rect fill="white" y="-0.677246" width="49" height="71"/>
<path d="M48 25.6232C48 29.6645 47.0923 33.682 45.3774 37.2453C45.1763 37.6603 44.7015 37.8227 44.316 37.6092C43.9306 37.3927 43.7798 36.8815 43.9781 36.4665C45.6008 33.0957 46.4247 29.4483 46.4247 25.6234C46.4247 12.6064 36.5878 2.01885 24.5 2.01885C12.4093 2.01885 2.57524 12.6095 2.57524 25.6234C2.57524 29.4483 3.39913 33.0956 5.0219 36.4665C5.22299 36.8815 5.07217 37.3926 4.68394 37.6092C4.56943 37.6753 4.44375 37.7054 4.32086 37.7054C4.03597 37.7054 3.76227 37.54 3.62262 37.2483C1.90776 33.6851 1 29.6648 1 25.6262C1 11.6709 11.5434 0.322754 24.4999 0.322754C37.4564 0.322754 48 11.6709 48 25.6232ZM24.5001 7.05532C14.9899 7.05532 7.2536 15.3843 7.2536 25.6232C7.2536 28.6031 7.9267 31.565 9.19754 34.1901C9.39863 34.605 9.87343 34.7644 10.2589 34.5509C10.6443 34.3344 10.7923 33.8232 10.594 33.4082C9.44053 31.0237 8.82885 28.3325 8.82885 25.6265C8.82885 16.323 15.8587 8.7545 24.5002 8.7545C33.1417 8.7545 40.1716 16.323 40.1716 25.6265C40.1716 28.3358 39.5627 31.027 38.4064 33.4082C38.2053 33.8232 38.3561 34.3344 38.7415 34.5509C38.8588 34.6171 38.9817 34.6471 39.1046 34.6471C39.3895 34.6471 39.6632 34.4818 39.8029 34.1901C41.0736 31.565 41.7468 28.6032 41.7468 25.6232C41.7468 15.3843 34.0103 7.05532 24.5001 7.05532ZM41.7466 48.1878V61.7944C41.7466 64.6029 39.462 66.0733 37.2052 66.0733C36.1132 66.0733 35.0854 65.7395 34.295 65.1321V67.6399C34.295 68.8727 33.2727 69.874 32.0187 69.874H17.1353C15.8812 69.874 14.8618 68.8727 14.8618 67.6399V65.1231C14.0407 65.7515 12.9905 66.0733 11.9487 66.0733C10.798 66.0733 9.71434 65.7064 8.89323 65.0389C7.93242 64.2571 7.40739 63.1054 7.40739 61.7913V48.1847C7.40739 44.5492 8.67537 41.8069 11.1751 40.0296C12.957 38.7637 15.3086 38.012 18.3444 37.7353C18.4282 37.2602 18.6321 36.8302 18.9169 36.4784C18.5734 35.8289 18.012 35.1283 17.0736 34.1601C14.9566 31.9649 13.789 29.0121 13.789 25.8457C13.789 19.486 18.593 14.3144 24.4997 14.3144C30.4065 14.3144 35.2104 19.4863 35.2104 25.8457C35.2104 29.012 34.0458 31.9648 31.9287 34.1601C30.9875 35.1313 30.4261 35.8289 30.0854 36.4784C30.3675 36.8272 30.5714 37.2512 30.6579 37.7233C33.733 37.9819 36.1154 38.7246 37.9223 39.9875C40.464 41.7616 41.7515 44.519 41.7515 48.1841L41.7466 48.1878ZM21.7459 44.6155C21.7822 45.7161 22.6257 46.6001 23.6591 46.6001H25.3405C26.3739 46.6001 27.2146 45.7161 27.2537 44.6155H21.7459ZM28.9853 41.9273C28.9853 41.38 28.5719 40.935 28.0636 40.935H20.9331C20.4248 40.935 20.0114 41.38 20.0114 41.9273C20.0114 42.4746 20.4248 42.9196 20.9331 42.9196H28.0636C28.5719 42.9196 28.9853 42.4746 28.9853 41.9273ZM20.7907 37.2575C20.2907 37.2575 19.869 37.7115 19.869 38.2498C19.869 38.2919 19.8718 38.331 19.8774 38.3701C19.8802 38.3881 19.8829 38.4092 19.8857 38.4272C19.9639 38.8903 20.341 39.2421 20.7906 39.2421C20.813 39.2421 20.8381 39.2451 20.8605 39.2451C20.8828 39.2451 20.9079 39.2421 20.9303 39.2421H28.0608C28.0831 39.2421 28.1082 39.2451 28.1306 39.2451C28.1529 39.2421 28.1781 39.2421 28.2004 39.2421C28.7087 39.2421 29.1221 38.7971 29.1221 38.2498C29.1221 37.7116 28.7004 37.2575 28.2004 37.2575H20.7852L20.7907 37.2575ZM20.2712 35.6217C20.4388 35.5826 20.6119 35.5616 20.7907 35.5616H23.7121V29.7792L19.7657 25.5304C19.4584 25.1996 19.4584 24.6614 19.7657 24.3306C20.0729 23.9999 20.5728 23.9999 20.8801 24.3306L24.3154 28.0292C24.3741 28.0142 24.4355 28.0051 24.4998 28.0051C24.564 28.0051 24.6254 28.0142 24.6841 28.0292L28.1194 24.3306C28.4267 23.9999 28.9266 23.9999 29.2338 24.3306C29.5411 24.6614 29.5411 25.1996 29.2338 25.5304L25.2874 29.7792V35.5616H28.2088C28.3876 35.5616 28.5607 35.5826 28.7283 35.6217C29.2143 34.7106 29.9377 33.8687 30.837 32.9395C32.6412 31.0692 33.6356 28.5524 33.6356 25.8491C33.6356 20.4246 29.5383 16.0136 24.5 16.0136C19.4618 16.0136 15.3645 20.4249 15.3645 25.8491C15.3645 28.5524 16.3587 31.0692 18.163 32.9395C19.0652 33.8686 19.7857 34.7076 20.2717 35.6187L20.2712 35.6217ZM40.1711 48.1876C40.1711 42.8202 36.9899 39.9456 30.4542 39.4106C30.3257 39.6932 30.1554 39.9518 29.9487 40.1713C30.3285 40.6434 30.5604 41.2569 30.5604 41.9304C30.5604 43.1242 29.8314 44.1405 28.8287 44.4863C28.8287 44.5044 28.8315 44.5224 28.8315 44.5405C28.8315 46.6092 27.2674 48.2931 25.3431 48.2931H23.6617C21.7373 48.2931 20.1733 46.6092 20.1733 44.5405C20.1733 44.5224 20.1761 44.5044 20.1761 44.4863C19.1734 44.1375 18.4444 43.1242 18.4444 41.9304C18.4444 41.2599 18.6762 40.6434 19.0561 40.1713C18.8522 39.9548 18.6818 39.7022 18.5561 39.4226C12.1183 39.9879 8.98443 42.8595 8.98443 48.1881V61.7947C8.98443 63.5718 10.5233 64.3807 11.9505 64.3807C13.0314 64.3807 14.8636 63.8365 14.8636 61.7947V51.445C14.8636 50.9759 15.2155 50.597 15.6512 50.597C16.087 50.597 16.4389 50.9759 16.4389 51.445V67.6435C16.4389 67.8991 16.7265 68.1818 17.1371 68.1818H32.0205C32.4339 68.1818 32.7216 67.8991 32.7216 67.6435V51.445C32.7216 50.9759 33.0735 50.597 33.5092 50.597C33.9449 50.597 34.2969 50.9759 34.2969 51.445V61.7947C34.2969 63.8364 36.1263 64.3807 37.2071 64.3807C38.0059 64.3807 38.7712 64.1281 39.3102 63.6891C39.8828 63.223 40.1732 62.5856 40.1732 61.7948V48.1881L40.1711 48.1876Z"/>
</mask>
<path d="M48 25.6232C48 29.6645 47.0923 33.682 45.3774 37.2453C45.1763 37.6603 44.7015 37.8227 44.316 37.6092C43.9306 37.3927 43.7798 36.8815 43.9781 36.4665C45.6008 33.0957 46.4247 29.4483 46.4247 25.6234C46.4247 12.6064 36.5878 2.01885 24.5 2.01885C12.4093 2.01885 2.57524 12.6095 2.57524 25.6234C2.57524 29.4483 3.39913 33.0956 5.0219 36.4665C5.22299 36.8815 5.07217 37.3926 4.68394 37.6092C4.56943 37.6753 4.44375 37.7054 4.32086 37.7054C4.03597 37.7054 3.76227 37.54 3.62262 37.2483C1.90776 33.6851 1 29.6648 1 25.6262C1 11.6709 11.5434 0.322754 24.4999 0.322754C37.4564 0.322754 48 11.6709 48 25.6232ZM24.5001 7.05532C14.9899 7.05532 7.2536 15.3843 7.2536 25.6232C7.2536 28.6031 7.9267 31.565 9.19754 34.1901C9.39863 34.605 9.87343 34.7644 10.2589 34.5509C10.6443 34.3344 10.7923 33.8232 10.594 33.4082C9.44053 31.0237 8.82885 28.3325 8.82885 25.6265C8.82885 16.323 15.8587 8.7545 24.5002 8.7545C33.1417 8.7545 40.1716 16.323 40.1716 25.6265C40.1716 28.3358 39.5627 31.027 38.4064 33.4082C38.2053 33.8232 38.3561 34.3344 38.7415 34.5509C38.8588 34.6171 38.9817 34.6471 39.1046 34.6471C39.3895 34.6471 39.6632 34.4818 39.8029 34.1901C41.0736 31.565 41.7468 28.6032 41.7468 25.6232C41.7468 15.3843 34.0103 7.05532 24.5001 7.05532ZM41.7466 48.1878V61.7944C41.7466 64.6029 39.462 66.0733 37.2052 66.0733C36.1132 66.0733 35.0854 65.7395 34.295 65.1321V67.6399C34.295 68.8727 33.2727 69.874 32.0187 69.874H17.1353C15.8812 69.874 14.8618 68.8727 14.8618 67.6399V65.1231C14.0407 65.7515 12.9905 66.0733 11.9487 66.0733C10.798 66.0733 9.71434 65.7064 8.89323 65.0389C7.93242 64.2571 7.40739 63.1054 7.40739 61.7913V48.1847C7.40739 44.5492 8.67537 41.8069 11.1751 40.0296C12.957 38.7637 15.3086 38.012 18.3444 37.7353C18.4282 37.2602 18.6321 36.8302 18.9169 36.4784C18.5734 35.8289 18.012 35.1283 17.0736 34.1601C14.9566 31.9649 13.789 29.0121 13.789 25.8457C13.789 19.486 18.593 14.3144 24.4997 14.3144C30.4065 14.3144 35.2104 19.4863 35.2104 25.8457C35.2104 29.012 34.0458 31.9648 31.9287 34.1601C30.9875 35.1313 30.4261 35.8289 30.0854 36.4784C30.3675 36.8272 30.5714 37.2512 30.6579 37.7233C33.733 37.9819 36.1154 38.7246 37.9223 39.9875C40.464 41.7616 41.7515 44.519 41.7515 48.1841L41.7466 48.1878ZM21.7459 44.6155C21.7822 45.7161 22.6257 46.6001 23.6591 46.6001H25.3405C26.3739 46.6001 27.2146 45.7161 27.2537 44.6155H21.7459ZM28.9853 41.9273C28.9853 41.38 28.5719 40.935 28.0636 40.935H20.9331C20.4248 40.935 20.0114 41.38 20.0114 41.9273C20.0114 42.4746 20.4248 42.9196 20.9331 42.9196H28.0636C28.5719 42.9196 28.9853 42.4746 28.9853 41.9273ZM20.7907 37.2575C20.2907 37.2575 19.869 37.7115 19.869 38.2498C19.869 38.2919 19.8718 38.331 19.8774 38.3701C19.8802 38.3881 19.8829 38.4092 19.8857 38.4272C19.9639 38.8903 20.341 39.2421 20.7906 39.2421C20.813 39.2421 20.8381 39.2451 20.8605 39.2451C20.8828 39.2451 20.9079 39.2421 20.9303 39.2421H28.0608C28.0831 39.2421 28.1082 39.2451 28.1306 39.2451C28.1529 39.2421 28.1781 39.2421 28.2004 39.2421C28.7087 39.2421 29.1221 38.7971 29.1221 38.2498C29.1221 37.7116 28.7004 37.2575 28.2004 37.2575H20.7852L20.7907 37.2575ZM20.2712 35.6217C20.4388 35.5826 20.6119 35.5616 20.7907 35.5616H23.7121V29.7792L19.7657 25.5304C19.4584 25.1996 19.4584 24.6614 19.7657 24.3306C20.0729 23.9999 20.5728 23.9999 20.8801 24.3306L24.3154 28.0292C24.3741 28.0142 24.4355 28.0051 24.4998 28.0051C24.564 28.0051 24.6254 28.0142 24.6841 28.0292L28.1194 24.3306C28.4267 23.9999 28.9266 23.9999 29.2338 24.3306C29.5411 24.6614 29.5411 25.1996 29.2338 25.5304L25.2874 29.7792V35.5616H28.2088C28.3876 35.5616 28.5607 35.5826 28.7283 35.6217C29.2143 34.7106 29.9377 33.8687 30.837 32.9395C32.6412 31.0692 33.6356 28.5524 33.6356 25.8491C33.6356 20.4246 29.5383 16.0136 24.5 16.0136C19.4618 16.0136 15.3645 20.4249 15.3645 25.8491C15.3645 28.5524 16.3587 31.0692 18.163 32.9395C19.0652 33.8686 19.7857 34.7076 20.2717 35.6187L20.2712 35.6217ZM40.1711 48.1876C40.1711 42.8202 36.9899 39.9456 30.4542 39.4106C30.3257 39.6932 30.1554 39.9518 29.9487 40.1713C30.3285 40.6434 30.5604 41.2569 30.5604 41.9304C30.5604 43.1242 29.8314 44.1405 28.8287 44.4863C28.8287 44.5044 28.8315 44.5224 28.8315 44.5405C28.8315 46.6092 27.2674 48.2931 25.3431 48.2931H23.6617C21.7373 48.2931 20.1733 46.6092 20.1733 44.5405C20.1733 44.5224 20.1761 44.5044 20.1761 44.4863C19.1734 44.1375 18.4444 43.1242 18.4444 41.9304C18.4444 41.2599 18.6762 40.6434 19.0561 40.1713C18.8522 39.9548 18.6818 39.7022 18.5561 39.4226C12.1183 39.9879 8.98443 42.8595 8.98443 48.1881V61.7947C8.98443 63.5718 10.5233 64.3807 11.9505 64.3807C13.0314 64.3807 14.8636 63.8365 14.8636 61.7947V51.445C14.8636 50.9759 15.2155 50.597 15.6512 50.597C16.087 50.597 16.4389 50.9759 16.4389 51.445V67.6435C16.4389 67.8991 16.7265 68.1818 17.1371 68.1818H32.0205C32.4339 68.1818 32.7216 67.8991 32.7216 67.6435V51.445C32.7216 50.9759 33.0735 50.597 33.5092 50.597C33.9449 50.597 34.2969 50.9759 34.2969 51.445V61.7947C34.2969 63.8364 36.1263 64.3807 37.2071 64.3807C38.0059 64.3807 38.7712 64.1281 39.3102 63.6891C39.8828 63.223 40.1732 62.5856 40.1732 61.7948V48.1881L40.1711 48.1876Z" fill="white"/>
<path d="M48 25.6232C48 29.6645 47.0923 33.682 45.3774 37.2453C45.1763 37.6603 44.7015 37.8227 44.316 37.6092C43.9306 37.3927 43.7798 36.8815 43.9781 36.4665C45.6008 33.0957 46.4247 29.4483 46.4247 25.6234C46.4247 12.6064 36.5878 2.01885 24.5 2.01885C12.4093 2.01885 2.57524 12.6095 2.57524 25.6234C2.57524 29.4483 3.39913 33.0956 5.0219 36.4665C5.22299 36.8815 5.07217 37.3926 4.68394 37.6092C4.56943 37.6753 4.44375 37.7054 4.32086 37.7054C4.03597 37.7054 3.76227 37.54 3.62262 37.2483C1.90776 33.6851 1 29.6648 1 25.6262C1 11.6709 11.5434 0.322754 24.4999 0.322754C37.4564 0.322754 48 11.6709 48 25.6232ZM24.5001 7.05532C14.9899 7.05532 7.2536 15.3843 7.2536 25.6232C7.2536 28.6031 7.9267 31.565 9.19754 34.1901C9.39863 34.605 9.87343 34.7644 10.2589 34.5509C10.6443 34.3344 10.7923 33.8232 10.594 33.4082C9.44053 31.0237 8.82885 28.3325 8.82885 25.6265C8.82885 16.323 15.8587 8.7545 24.5002 8.7545C33.1417 8.7545 40.1716 16.323 40.1716 25.6265C40.1716 28.3358 39.5627 31.027 38.4064 33.4082C38.2053 33.8232 38.3561 34.3344 38.7415 34.5509C38.8588 34.6171 38.9817 34.6471 39.1046 34.6471C39.3895 34.6471 39.6632 34.4818 39.8029 34.1901C41.0736 31.565 41.7468 28.6032 41.7468 25.6232C41.7468 15.3843 34.0103 7.05532 24.5001 7.05532ZM41.7466 48.1878V61.7944C41.7466 64.6029 39.462 66.0733 37.2052 66.0733C36.1132 66.0733 35.0854 65.7395 34.295 65.1321V67.6399C34.295 68.8727 33.2727 69.874 32.0187 69.874H17.1353C15.8812 69.874 14.8618 68.8727 14.8618 67.6399V65.1231C14.0407 65.7515 12.9905 66.0733 11.9487 66.0733C10.798 66.0733 9.71434 65.7064 8.89323 65.0389C7.93242 64.2571 7.40739 63.1054 7.40739 61.7913V48.1847C7.40739 44.5492 8.67537 41.8069 11.1751 40.0296C12.957 38.7637 15.3086 38.012 18.3444 37.7353C18.4282 37.2602 18.6321 36.8302 18.9169 36.4784C18.5734 35.8289 18.012 35.1283 17.0736 34.1601C14.9566 31.9649 13.789 29.0121 13.789 25.8457C13.789 19.486 18.593 14.3144 24.4997 14.3144C30.4065 14.3144 35.2104 19.4863 35.2104 25.8457C35.2104 29.012 34.0458 31.9648 31.9287 34.1601C30.9875 35.1313 30.4261 35.8289 30.0854 36.4784C30.3675 36.8272 30.5714 37.2512 30.6579 37.7233C33.733 37.9819 36.1154 38.7246 37.9223 39.9875C40.464 41.7616 41.7515 44.519 41.7515 48.1841L41.7466 48.1878ZM21.7459 44.6155C21.7822 45.7161 22.6257 46.6001 23.6591 46.6001H25.3405C26.3739 46.6001 27.2146 45.7161 27.2537 44.6155H21.7459ZM28.9853 41.9273C28.9853 41.38 28.5719 40.935 28.0636 40.935H20.9331C20.4248 40.935 20.0114 41.38 20.0114 41.9273C20.0114 42.4746 20.4248 42.9196 20.9331 42.9196H28.0636C28.5719 42.9196 28.9853 42.4746 28.9853 41.9273ZM20.7907 37.2575C20.2907 37.2575 19.869 37.7115 19.869 38.2498C19.869 38.2919 19.8718 38.331 19.8774 38.3701C19.8802 38.3881 19.8829 38.4092 19.8857 38.4272C19.9639 38.8903 20.341 39.2421 20.7906 39.2421C20.813 39.2421 20.8381 39.2451 20.8605 39.2451C20.8828 39.2451 20.9079 39.2421 20.9303 39.2421H28.0608C28.0831 39.2421 28.1082 39.2451 28.1306 39.2451C28.1529 39.2421 28.1781 39.2421 28.2004 39.2421C28.7087 39.2421 29.1221 38.7971 29.1221 38.2498C29.1221 37.7116 28.7004 37.2575 28.2004 37.2575H20.7852L20.7907 37.2575ZM20.2712 35.6217C20.4388 35.5826 20.6119 35.5616 20.7907 35.5616H23.7121V29.7792L19.7657 25.5304C19.4584 25.1996 19.4584 24.6614 19.7657 24.3306C20.0729 23.9999 20.5728 23.9999 20.8801 24.3306L24.3154 28.0292C24.3741 28.0142 24.4355 28.0051 24.4998 28.0051C24.564 28.0051 24.6254 28.0142 24.6841 28.0292L28.1194 24.3306C28.4267 23.9999 28.9266 23.9999 29.2338 24.3306C29.5411 24.6614 29.5411 25.1996 29.2338 25.5304L25.2874 29.7792V35.5616H28.2088C28.3876 35.5616 28.5607 35.5826 28.7283 35.6217C29.2143 34.7106 29.9377 33.8687 30.837 32.9395C32.6412 31.0692 33.6356 28.5524 33.6356 25.8491C33.6356 20.4246 29.5383 16.0136 24.5 16.0136C19.4618 16.0136 15.3645 20.4249 15.3645 25.8491C15.3645 28.5524 16.3587 31.0692 18.163 32.9395C19.0652 33.8686 19.7857 34.7076 20.2717 35.6187L20.2712 35.6217ZM40.1711 48.1876C40.1711 42.8202 36.9899 39.9456 30.4542 39.4106C30.3257 39.6932 30.1554 39.9518 29.9487 40.1713C30.3285 40.6434 30.5604 41.2569 30.5604 41.9304C30.5604 43.1242 29.8314 44.1405 28.8287 44.4863C28.8287 44.5044 28.8315 44.5224 28.8315 44.5405C28.8315 46.6092 27.2674 48.2931 25.3431 48.2931H23.6617C21.7373 48.2931 20.1733 46.6092 20.1733 44.5405C20.1733 44.5224 20.1761 44.5044 20.1761 44.4863C19.1734 44.1375 18.4444 43.1242 18.4444 41.9304C18.4444 41.2599 18.6762 40.6434 19.0561 40.1713C18.8522 39.9548 18.6818 39.7022 18.5561 39.4226C12.1183 39.9879 8.98443 42.8595 8.98443 48.1881V61.7947C8.98443 63.5718 10.5233 64.3807 11.9505 64.3807C13.0314 64.3807 14.8636 63.8365 14.8636 61.7947V51.445C14.8636 50.9759 15.2155 50.597 15.6512 50.597C16.087 50.597 16.4389 50.9759 16.4389 51.445V67.6435C16.4389 67.8991 16.7265 68.1818 17.1371 68.1818H32.0205C32.4339 68.1818 32.7216 67.8991 32.7216 67.6435V51.445C32.7216 50.9759 33.0735 50.597 33.5092 50.597C33.9449 50.597 34.2969 50.9759 34.2969 51.445V61.7947C34.2969 63.8364 36.1263 64.3807 37.2071 64.3807C38.0059 64.3807 38.7712 64.1281 39.3102 63.6891C39.8828 63.223 40.1732 62.5856 40.1732 61.7948V48.1881L40.1711 48.1876Z" stroke="white" stroke-width="0.4" mask="url(#path-1-outside-1_508_2769)"/>
</svg>
