<svg width="73" height="80" viewBox="0 0 73 80" fill="none" xmlns="http://www.w3.org/2000/svg">
<path d="M33.2688 22.849C38.6837 22.849 43.0897 17.7242 43.0897 11.4245C43.0897 5.12279 38.6846 0 33.2688 0C27.8539 0 23.4505 5.12279 23.4505 11.4245C23.4496 17.7242 27.8539 22.849 33.2688 22.849ZM33.2688 2.2849C37.6015 2.2849 41.1248 6.38601 41.1248 11.4255C41.1248 16.4651 37.6015 20.5641 33.2688 20.5641C28.937 20.5641 25.4137 16.4651 25.4137 11.4255C25.4137 6.38601 28.9361 2.2849 33.2688 2.2849Z" fill="white"/>
<path d="M29.9751 14.6446H29.9734C29.9707 14.6446 29.9672 14.6446 29.9645 14.6446C29.6518 14.6446 29.3717 14.8111 29.1729 15.0619C28.9326 15.2583 28.7559 15.5615 28.7214 15.9294C28.6578 16.6099 29.0784 17.2225 29.6633 17.2965C30.947 17.4609 32.0328 17.537 33.0612 17.537C33.1115 17.537 33.1592 17.5349 33.2078 17.5349C33.897 17.5308 34.5375 17.3684 35.1559 17.2132C35.7046 17.0745 36.2241 16.9419 36.7241 16.9347C37.3117 16.9285 37.7826 16.3683 37.7764 15.6817C37.7684 15.0013 37.2754 14.4915 36.7003 14.4596C35.982 14.4699 35.3326 14.6344 34.7036 14.7926C34.1673 14.9294 33.6611 15.0558 33.1937 15.0599C33.0691 15.0599 32.9428 15.0537 32.8156 15.0517C33.2847 14.3147 33.5957 13.512 33.6178 12.8757C33.6178 12.8315 33.6098 12.7873 33.6098 12.7452C33.8784 12.7349 34.1434 12.7174 34.4138 12.7174C34.4182 12.7174 34.4262 12.7174 34.4279 12.7174C35.0155 12.7174 35.4917 12.1634 35.4917 11.4809C35.4917 10.7964 35.0155 10.2424 34.4288 10.2424C34.4235 10.2424 34.4182 10.2424 34.4147 10.2424C33.9747 10.2424 33.5436 10.264 33.1098 10.2825C33.0638 10.1458 33.0179 10.0049 32.9719 9.87337C32.7767 9.32142 32.5938 8.79928 32.532 8.3758C32.4816 8.04484 32.4666 7.61314 32.6662 7.42607C32.8942 7.21536 33.4534 7.15678 34.0781 7.45794C34.3546 7.59258 35.269 8.11679 35.3795 9.27825C35.4448 9.95869 35.9838 10.4366 36.5545 10.3709C37.1394 10.2989 37.5599 9.68425 37.4954 9.00382C37.3337 7.31198 36.361 5.87608 34.8927 5.17098C33.5869 4.53885 32.2245 4.66322 31.3375 5.49269C30.8798 5.91822 30.1545 6.91626 30.4354 8.79928C30.5141 9.32759 30.6775 9.84562 30.8507 10.3554C30.5839 10.3616 30.3232 10.3791 30.052 10.3791C29.4654 10.3791 28.9891 10.9331 28.9891 11.6176C28.9891 12.3001 29.4654 12.8562 30.052 12.8562C30.537 12.8562 31.0062 12.8325 31.4806 12.8099C31.3843 13.4081 30.3798 14.6446 29.9751 14.6446Z" fill="white"/>
<path d="M72.9836 42.192C73.0843 41.5157 72.6973 40.8754 72.1178 40.7582C71.5479 40.6462 70.9896 41.0912 70.8871 41.7645C70.789 42.4233 70.7987 43.0092 70.8076 43.4851C70.8182 44.0494 70.8093 44.3104 70.7422 44.4811C70.4736 44.405 70.0743 44.2498 69.7827 44.1357C68.5458 43.6578 67.4794 43.2446 66.755 44.0113C66.3972 44.3886 66.3079 44.8963 66.1639 45.7422C66.0482 46.4083 65.7425 48.1813 65.3325 48.3766C65.1214 48.4105 64.366 47.9346 63.9366 47.6581C63.1326 47.1422 62.3013 46.5964 61.4743 46.6601C61.1651 46.6786 60.8789 46.8513 60.6889 47.136C60.5838 47.2922 60.5281 47.4793 60.4972 47.6705C57.8052 37.0281 46.2827 29.0089 32.5143 29.0089C27.2045 29.0089 22.0325 30.2115 17.5161 32.4943C16.0416 31.3277 14.6315 29.8805 13.2665 28.4775L12.8265 28.0242C12.5155 27.7046 12.0676 27.6491 11.708 27.8772C11.3476 28.1085 11.1479 28.5782 11.2106 29.0521C11.3608 30.1724 11.3802 31.4531 11.3988 32.6917C11.4182 33.96 11.4386 35.2633 11.5958 36.4762C9.14854 38.6285 7.20043 41.1601 5.9017 43.8674C5.39811 43.6845 4.88215 43.592 4.35912 43.592C3.3537 43.592 2.54972 43.9353 1.96927 44.6136C0.814542 45.9632 0.82161 48.2389 0.828678 50.8753L0.830445 51.5413L0.828678 52.2053C0.82161 54.8407 0.814542 57.1174 1.96927 58.467C2.7114 59.3324 3.86436 59.6911 5.21081 59.392C6.55548 62.8692 8.97891 65.6896 12.3371 67.8255C12.3397 68.5625 12.3486 69.2994 12.3592 70.0395C12.3892 72.0006 12.4183 74.0306 12.2708 75.9599C12.2302 76.5098 12.5067 77.0237 12.9502 77.2241C16.1979 78.6816 18.9677 79.4001 21.3549 79.4001C21.9751 79.4001 22.5706 79.3518 23.1413 79.2531C23.4002 79.2089 23.6369 79.0568 23.8039 78.8214C24.7634 77.4903 24.9207 75.7399 25.0585 74.194C25.1203 73.491 25.1795 72.8311 25.305 72.2925C25.3191 72.2298 25.3094 72.1723 25.3156 72.1116C27.5614 72.4004 29.9592 72.5556 32.5125 72.5556C35.4881 72.5556 38.2809 72.2966 40.8854 71.829C40.9534 72.2607 41.0056 72.7263 41.0506 73.2299C41.1884 74.7758 41.3457 76.5283 42.3052 77.8614C42.4722 78.0947 42.7089 78.2468 42.966 78.289C43.5368 78.3856 44.1322 78.4359 44.7533 78.4359C47.1414 78.4359 49.9112 77.7154 53.1589 76.26C53.6024 76.0637 53.8781 75.5477 53.8374 74.9968C53.6908 73.0655 53.7199 71.0375 53.7499 69.0743C53.7623 68.249 53.7747 67.4226 53.7747 66.6034C53.7747 66.5911 53.7694 66.5828 53.7694 66.5715C58.4201 63.0727 61.0927 58.2141 61.0927 52.4325C61.0927 52.3842 61.0847 52.34 61.0847 52.2917C61.3515 52.0583 61.5256 51.7017 61.5203 51.2977C61.5759 51.0809 61.7809 50.5906 61.9223 50.2596C62.0512 49.9543 62.1652 49.6778 62.2624 49.424C62.4903 49.5566 62.7262 49.7066 62.9074 49.8238C63.8916 50.4518 65.011 51.1693 66.0517 50.6954C67.5996 49.9985 68.0051 47.6355 68.2481 46.2243C68.2498 46.2037 68.2551 46.1904 68.2569 46.1698C68.5361 46.2603 68.8692 46.3887 69.1095 46.4833C70.2757 46.9366 71.2007 47.2922 71.8872 46.658C72.9721 45.6538 72.9509 44.4214 72.9341 43.4296C72.9288 43.0092 72.9218 42.6114 72.9836 42.192ZM22.9425 73.9391C22.848 75.005 22.749 76.1027 22.3868 76.8664C20.2629 77.109 17.593 76.557 14.4522 75.2342C14.5405 73.4817 14.514 71.7149 14.4884 69.9984C14.484 69.6787 14.4822 69.3601 14.4787 69.0404C16.9869 70.2851 19.9166 71.204 23.227 71.7909C23.0803 72.4837 23.0079 73.2196 22.9425 73.9391ZM51.6587 74.2721C48.5188 75.5929 45.8542 76.1449 43.7232 75.9064C43.3618 75.1376 43.2638 74.0419 43.1692 72.9771C43.1206 72.4467 43.0606 71.9132 42.9784 71.389C46.2447 70.6161 49.1567 69.4783 51.6331 68.0105C51.6296 68.3518 51.6278 68.693 51.6225 69.0342C51.5978 70.7528 51.5713 72.5197 51.6587 74.2721ZM32.5143 70.2831C24.387 70.2831 10.2282 68.6365 6.70479 57.6313C6.55725 57.1739 6.18353 56.8902 5.78684 56.8902C5.67729 56.8902 5.56597 56.9108 5.4573 56.956C5.03941 57.1287 4.69131 57.2109 4.36 57.2109C3.65762 57.2109 3.43057 56.9437 3.35547 56.8574C2.77501 56.179 2.77943 54.2518 2.78562 52.2105L2.78738 51.5403L2.78562 50.8681C2.77855 48.8268 2.77413 46.8975 3.35547 46.2212C3.43057 46.1349 3.65762 45.8676 4.36 45.8676C4.8848 45.8676 5.40429 46.0197 5.90258 46.325C6.13847 46.4699 6.40971 46.4936 6.66327 46.397C6.9133 46.3003 7.12092 46.0896 7.23577 45.8152C8.45146 42.9002 10.5277 40.16 13.24 37.8895C13.5563 37.6264 13.7074 37.1669 13.6243 36.7249C13.4017 35.5367 13.3796 34.1337 13.3566 32.6495C13.3513 32.2918 13.346 31.9331 13.3381 31.5734C14.4716 32.7091 15.6449 33.8141 16.8977 34.7453C17.1768 34.954 17.5294 34.9807 17.8297 34.8234C22.2083 32.5067 27.2858 31.2845 32.5143 31.2845C47.1953 31.2845 59.1375 40.7716 59.1375 52.4335C59.1375 64.7625 45.7667 70.2831 32.5143 70.2831Z" fill="white"/>
<path d="M40.5461 34.7319C39.8217 34.5828 39.1158 34.3762 38.409 34.1696C37.0263 33.7657 35.5977 33.3484 33.9968 33.3104C31.7404 33.262 29.9478 33.4131 26.3935 34.4204C25.8227 34.5808 25.4711 35.252 25.6098 35.9159C25.7476 36.5789 26.3192 36.9818 26.8953 36.8256C30.2428 35.88 31.849 35.7371 33.9526 35.7875C35.3123 35.8173 36.5651 36.1852 37.8904 36.5727C38.6449 36.7937 39.3994 37.0127 40.1733 37.1689C40.2352 37.1833 40.2979 37.1894 40.3597 37.1894C40.8669 37.1894 41.3157 36.768 41.4076 36.1698C41.5109 35.4966 41.1248 34.8521 40.5461 34.7319Z" fill="white"/>
<path d="M14.4928 48.0313C15.6194 48.0313 16.5328 47.0147 16.5328 45.7607C16.5328 44.5068 15.6194 43.4902 14.4928 43.4902C13.3661 43.4902 12.4528 44.5068 12.4528 45.7607C12.4528 47.0147 13.3661 48.0313 14.4928 48.0313Z" fill="white"/>
</svg>
