<svg width="60" height="63" viewBox="0 0 60 63" fill="none" xmlns="http://www.w3.org/2000/svg">
<path d="M56.2591 23.6035C55.634 23.6035 55.0457 23.2038 54.8186 22.5602C54.4902 21.6315 54.1045 20.7028 53.6717 19.8016C53.2942 19.015 53.6042 18.0608 54.3623 17.6696C55.1214 17.2805 56.0433 17.5985 56.4198 18.3852C56.9027 19.3913 57.3344 20.4271 57.7007 21.4661C57.9923 22.291 57.5841 23.2048 56.7881 23.5059C56.6121 23.5717 56.4351 23.6035 56.2591 23.6035Z" fill="white"/>
<path d="M33.0898 62.3724C32.3184 62.3724 31.6534 61.7713 31.5664 60.9571C31.4733 60.0845 32.08 59.2979 32.923 59.2014C34.9058 58.9735 36.863 58.5112 38.7394 57.8274C39.5415 57.5348 40.4163 57.9716 40.6966 58.7996C40.977 59.6287 40.5575 60.5362 39.7584 60.8277C37.6611 61.5921 35.4747 62.1084 33.2607 62.3629C33.2044 62.3693 33.1471 62.3724 33.0898 62.3724ZM26.7793 62.3597C26.721 62.3597 26.6616 62.3565 26.6023 62.3491C24.3872 62.0851 22.2029 61.5593 20.1076 60.7864C19.3095 60.4917 18.8931 59.5809 19.1776 58.754C19.463 57.9271 20.3419 57.4966 21.1389 57.7903C23.0132 58.4826 24.9694 58.9533 26.9522 59.1897C27.7942 59.2905 28.3989 60.0782 28.3017 60.9507C28.2116 61.7618 27.5487 62.3597 26.7793 62.3597ZM44.9303 58.0585C44.4228 58.0585 43.9256 57.7966 43.633 57.3196C43.1797 56.5774 43.3915 55.5957 44.1077 55.125C45.7876 54.0213 47.352 52.7162 48.7587 51.2457C49.3552 50.6213 50.3282 50.617 50.9288 51.2351C51.5314 51.8532 51.5355 52.8604 50.939 53.4838C49.3706 55.1239 47.6251 56.5795 45.7508 57.8115C45.496 57.979 45.2126 58.0585 44.9303 58.0585ZM14.9511 57.996C14.6677 57.996 14.3812 57.9154 14.1255 57.7458C12.2532 56.5043 10.5139 55.0412 8.95363 53.3958C8.35921 52.7692 8.36841 51.762 8.97307 51.1471C9.57773 50.5301 10.5497 50.5396 11.1431 51.1673C12.5417 52.642 14.1019 53.9534 15.7798 55.0667C16.4939 55.5406 16.7016 56.5244 16.2453 57.2634C15.9517 57.7373 15.4565 57.996 14.9511 57.996ZM53.7638 48.82C53.4865 48.82 53.2072 48.7426 52.9545 48.5804C52.2353 48.116 52.0143 47.1364 52.4614 46.39C53.5162 44.6323 54.3766 42.7515 55.0181 40.8018C55.2923 39.9706 56.163 39.5264 56.9661 39.8094C57.7682 40.0936 58.1969 40.9969 57.9238 41.828C57.2066 44.0057 56.2459 46.1059 55.0693 48.0683C54.7777 48.5539 54.2764 48.82 53.7638 48.82ZM6.15441 48.7204C5.63978 48.7204 5.13641 48.4521 4.84585 47.9644C3.67746 45.9978 2.72494 43.8944 2.01593 41.7135C1.7448 40.8813 2.17655 39.9791 2.9797 39.6992C3.78181 39.4161 4.6535 39.8656 4.9236 40.6979C5.55895 42.6508 6.41223 44.5347 7.45887 46.2968C7.9029 47.0452 7.67782 48.0238 6.95652 48.485C6.70688 48.644 6.4286 48.7204 6.15441 48.7204ZM57.8184 36.5091C57.7662 36.5091 57.714 36.507 57.6618 36.5006C56.8188 36.4126 56.2039 35.6323 56.2898 34.7576C56.3799 33.8363 56.4259 32.9002 56.4259 31.9736C56.4259 30.8307 56.3584 29.6857 56.2244 28.5714C56.119 27.6999 56.7155 26.9048 57.5575 26.7967C58.3985 26.6875 59.1648 27.3066 59.2702 28.1781C59.4195 29.4228 59.4963 30.7003 59.4963 31.9746C59.4963 33.0083 59.4451 34.0526 59.3449 35.0799C59.263 35.8984 58.5959 36.5091 57.8184 36.5091ZM2.14688 36.3967C1.36625 36.3967 0.699184 35.7828 0.621427 34.9612C0.528324 33.9731 0.481262 32.968 0.481262 31.9725C0.481262 30.6642 0.562088 29.3475 0.721693 28.0604C0.830142 27.1889 1.60157 26.5772 2.43949 26.6864C3.28049 26.7988 3.87389 27.595 3.76544 28.4665C3.62323 29.6189 3.55161 30.7999 3.55161 31.9736C3.55161 32.8652 3.59356 33.7664 3.67643 34.6516C3.7593 35.5263 3.14237 36.3034 2.29831 36.3893C2.24715 36.3935 2.19702 36.3967 2.14688 36.3967ZM3.75624 23.4984C3.57822 23.4984 3.39815 23.4666 3.22217 23.3987C2.42824 23.0924 2.02309 22.1774 2.31774 21.3536C3.09122 19.1951 4.10614 17.1235 5.33182 15.1939C5.79836 14.4613 6.75088 14.2588 7.45785 14.7412C8.16482 15.2247 8.36125 16.2107 7.89472 16.9443C6.7959 18.6714 5.8884 20.5278 5.19473 22.4605C4.96555 23.1019 4.37931 23.4984 3.75624 23.4984ZM10.6571 12.6325C10.253 12.6325 9.84988 12.4682 9.54908 12.1416C8.96284 11.5076 8.98433 10.5005 9.59615 9.89297C11.2045 8.29739 12.9857 6.88945 14.8918 5.70946C15.6182 5.25888 16.5605 5.50378 16.9963 6.25864C17.4311 7.01244 17.1938 7.98887 16.4663 8.43945C14.7577 9.49858 13.1607 10.7602 11.7181 12.1904C11.4214 12.4862 11.0398 12.6325 10.6571 12.6325ZM21.4315 5.96497C20.7828 5.96497 20.1802 5.53559 19.9715 4.86131C19.7116 4.02482 20.1546 3.12895 20.9619 2.85967C23.0756 2.15358 25.2743 1.6977 27.4954 1.50474C28.3477 1.42417 29.0823 2.08043 29.1539 2.95614C29.2255 3.83186 28.5984 4.6005 27.7533 4.67471C25.7633 4.84858 23.7949 5.25676 21.9031 5.88863C21.7466 5.93952 21.588 5.96497 21.4315 5.96497Z" fill="white"/>
<path d="M37.037 5.51018C36.9091 5.51018 36.7791 5.49321 36.6492 5.45823C35.7171 5.20696 34.7605 5.00659 33.807 4.8624C32.968 4.73624 32.3869 3.92943 32.5087 3.06008C32.6304 2.19072 33.4151 1.58747 34.248 1.71469C35.313 1.87478 36.3801 2.09848 37.4227 2.37943C38.2432 2.59995 38.7343 3.46931 38.5215 4.31852C38.3414 5.03521 37.7194 5.51018 37.037 5.51018Z" fill="white"/>
<path d="M29.9888 56.1883C17.1037 56.1883 6.62094 45.3256 6.62094 31.9735C6.62094 18.6215 17.1037 7.75879 29.9888 7.75879C31.2042 7.75879 32.4238 7.85633 33.6136 8.04822C34.4505 8.18287 35.0235 8.99709 34.8936 9.86433C34.7626 10.7316 33.9758 11.3263 33.1399 11.1896C32.1076 11.0242 31.0467 10.9394 29.9888 10.9394C18.7959 10.9394 9.69027 20.3751 9.69027 31.9735C9.69027 43.572 18.7959 53.0077 29.9888 53.0077C41.1816 53.0077 50.2883 43.572 50.2883 31.9735C50.2883 29.7641 49.9588 27.5865 49.3092 25.5021C49.0493 24.6667 49.4923 23.7698 50.2985 23.5005C51.1088 23.227 51.9713 23.6892 52.2312 24.5246C52.978 26.9249 53.3586 29.4312 53.3586 31.9735C53.3576 45.3256 42.8748 56.1883 29.9888 56.1883Z" fill="white"/>
<path d="M23.8101 42.2531V40.0818C25.6128 39.2421 27.1403 37.1504 27.1403 34.9261C27.1403 34.2603 27.1137 33.6931 27.0175 33.0644H24.0761V30.4139H26.5981C26.4364 29.5212 26.2789 28.3773 26.2789 27.2789C26.2789 23.4357 28.8284 20.8521 32.5045 20.8521C34.0494 20.8521 35.1328 21.2189 35.7539 21.591L35.0981 24.5373C34.5609 24.2256 33.7547 23.9595 32.6487 23.9595C30.5422 23.9595 29.7533 25.4946 29.7533 27.3044C29.7533 28.4886 29.9027 29.4248 30.094 30.4129H34.1394V33.0633H30.4276C30.493 34.1097 30.4787 35.1413 30.2117 36.1114C29.9109 37.1599 29.3257 38.1777 28.4253 39.0184V39.0831H36.5539V42.2531H23.8101Z" fill="white"/>
<path d="M47.8932 23.3309H42.7776C41.9305 23.3309 41.2429 22.6195 41.2429 21.7406V12.7289H37.8718C37.2815 12.7289 36.7423 12.378 36.4875 11.8257C36.2318 11.2733 36.3044 10.6192 36.6758 10.1421L43.9481 0.76151C44.5292 0.00983502 45.759 0.00983502 46.3401 0.76151L53.6123 10.1421C53.9827 10.6192 54.0564 11.2733 53.8006 11.8257C53.5458 12.378 53.0077 12.7289 52.4163 12.7289H49.4278V21.7406C49.4278 22.6184 48.7403 23.3309 47.8932 23.3309ZM44.3123 20.1503H46.3585V11.1387C46.3585 10.2598 47.046 9.54837 47.8932 9.54837H49.216L45.1451 4.29725L41.0741 9.54837H42.7776C43.6247 9.54837 44.3123 10.2598 44.3123 11.1387V20.1503Z" fill="white"/>
</svg>
