<svg width="376" height="95" viewBox="0 0 376 95" fill="none" xmlns="http://www.w3.org/2000/svg">
<path d="M5.7342 56.2539C10.4146 60.9424 14.9839 61.9816 19.0138 62.9011C22.9986 63.8083 26.761 64.666 31.0462 68.9587C36.0971 74.0183 37.6737 78.1914 39.0609 81.8696L39.5014 83.0036C40.2835 85.655 41.7284 88.088 43.6878 90.0508C50.163 96.5372 60.7011 96.5372 67.1762 90.0508C73.6514 83.5644 73.6514 73.008 67.1762 66.5216C65.2168 64.5588 62.784 63.1073 60.3512 62.4022L59.0051 61.8867C55.3332 60.4971 51.1756 58.9178 46.1247 53.8581C41.8395 49.5655 40.9833 45.7924 40.0777 41.8049C39.1638 37.7679 38.1265 33.1907 33.442 28.5022C25.8019 20.8489 13.3702 20.8489 5.73009 28.5022C-1.91003 36.1556 -1.91003 48.6088 5.73009 56.2622" fill="#123E40"/>
<path d="M55.9465 0C47.2567 0 40.2094 7.05957 40.2094 15.7644C40.2094 24.4693 47.2567 31.5289 55.9465 31.5289C64.6363 31.5289 71.6837 24.4693 71.6837 15.7644C71.6837 7.05957 64.6363 0 55.9465 0Z" fill="#C6D92C"/>
<path d="M142.981 30.0856C142.94 30.0733 138.971 29.0176 136.349 31.0217C133.826 32.9515 133.291 37.2854 133.291 40.576V52.4066H128.886V40.576C128.886 21.3395 144.224 25.8507 144.224 25.8507L142.985 30.0856H142.981Z" fill="#123E40"/>
<path d="M327.443 30.2255C327.401 30.2132 323.433 29.1575 320.811 31.1616C318.283 33.0914 317.752 37.4253 317.752 40.7159V52.5465H313.348V40.7159C313.348 21.4794 328.686 25.9906 328.686 25.9906L327.447 30.2255H327.443Z" fill="#123E40"/>
<path d="M185.573 25.4385C184.133 25.4385 182.548 25.9086 181.041 26.725C177.83 28.4734 175.023 32.3496 175.023 40.5803V52.4108H179.427V40.5803C179.427 37.2855 179.959 32.9558 182.486 31.0259C183.425 30.3084 184.528 29.8713 185.573 29.8713C186.619 29.8713 187.722 30.3084 188.661 31.0259C191.188 32.9558 191.719 37.2896 191.719 40.5803V52.4108H196.124V40.5803C196.124 32.3537 193.316 28.4776 190.106 26.725C188.603 25.9044 187.014 25.4385 185.573 25.4385Z" fill="#123E40"/>
<path d="M163.555 39.0503L159.343 39.4544C156.487 39.706 154.474 40.2627 153.305 41.1245C152.136 41.9863 151.551 43.2481 151.551 44.9017C151.551 46.5553 151.942 47.6068 152.728 48.2913C153.515 48.9758 154.692 49.3222 156.264 49.3222C156.915 49.3222 157.557 49.2026 158.195 48.9593C158.829 48.716 159.455 48.415 160.076 48.0562C160.694 47.6975 161.291 47.2851 161.867 46.8274C162.443 46.3656 163.007 45.9202 163.559 45.4831V39.0545L163.555 39.0503ZM163.555 52.4066V49.116C162.217 50.2871 160.875 51.2603 159.52 52.0272C158.166 52.7984 156.639 53.1819 154.935 53.1819C152.428 53.1819 150.493 52.4149 149.135 50.885C147.772 49.3552 147.093 47.3923 147.093 44.9965C147.093 43.1863 147.447 41.6853 148.159 40.4895C148.867 39.2936 149.896 38.3452 151.242 37.6524C152.588 36.9597 154.54 36.4607 157.096 36.1597L163.563 35.5824V34.3041C163.563 32.2794 162.999 30.898 161.871 30.1599C160.743 29.4259 159.187 29.0548 157.199 29.0548C155.429 29.0548 154.062 29.364 153.099 29.9826C152.14 30.6011 151.448 31.2733 151.032 31.9908L147.496 29.8341C148.299 28.3785 149.522 27.261 151.168 26.4817C152.815 25.7023 154.857 25.3147 157.298 25.3147C161.072 25.3147 163.781 25.9992 165.419 27.3724C167.058 28.7455 167.877 31.1207 167.877 34.502V52.4025H163.567L163.555 52.4066Z" fill="#123E40"/>
<path d="M219.847 31.999C217.558 30.1104 215.302 29.162 213.079 29.162C211.124 29.162 209.523 29.9867 208.28 31.6362C207.032 33.2856 206.411 35.8587 206.411 39.3555C206.411 45.9986 208.502 49.3222 212.676 49.3222C214.047 49.3222 215.352 48.9799 216.599 48.2913C217.842 47.6068 218.925 46.8192 219.843 45.9326V31.999H219.847ZM219.847 52.4108V49.8005C218.859 50.7531 217.673 51.5572 216.286 52.2128C214.899 52.8644 213.421 53.1942 211.849 53.1942C208.691 53.1942 206.25 52.0025 204.53 49.615C202.809 47.2315 201.949 43.8461 201.949 39.4586C201.949 35.0711 202.883 31.7269 204.756 29.1661C206.625 26.6054 209.218 25.323 212.524 25.323C215.179 25.323 217.62 26.292 219.843 28.2342V15.0305H224.177V52.4149H219.843L219.847 52.4108Z" fill="#123E40"/>
<path d="M274.233 52.4108H268.697L262.152 24.5931L255.586 52.4108H250.148L241.952 17.6614H246.563L253.03 45.7306L259.599 17.6614H264.836L271.504 45.9326L278.07 17.6614H282.606L274.233 52.4108Z" fill="#123E40"/>
<path d="M303.332 39.3022C303.332 35.7229 302.744 33.1168 301.566 31.4962C300.389 29.8715 298.623 29.0592 296.264 29.0592C293.906 29.0592 292.045 29.8757 290.876 31.5086C289.707 33.1415 289.122 35.7394 289.122 39.3022C289.122 42.865 289.686 45.2772 290.814 46.9349C291.942 48.5926 293.757 49.4214 296.264 49.4214C298.771 49.4214 300.43 48.6009 301.591 46.9638C302.752 45.3226 303.332 42.7701 303.332 39.3063M307.795 39.3063C307.795 43.8752 306.815 47.3308 304.851 49.673C302.888 52.0152 300.027 53.1904 296.269 53.1904C292.51 53.1904 289.637 52.0317 287.649 49.7142C285.66 47.3968 284.664 43.9288 284.664 39.3063C284.664 34.6838 285.66 31.0963 287.661 28.7871C289.658 26.4778 292.527 25.3232 296.273 25.3232C300.019 25.3232 302.912 26.4985 304.868 28.853C306.823 31.2035 307.799 34.692 307.799 39.3104" fill="#123E40"/>
<path d="M348.749 52.4107L340.401 40.5843L337.569 43.7224V52.4107H333.259V15.0264H337.569V38.3741L348.247 26.0734H353.532L343.056 37.5947L354.088 52.4107H348.749Z" fill="#123E40"/>
<path d="M375.992 45.3061C375.992 47.7679 375.123 49.6977 373.386 51.0915C371.649 52.4894 369.175 53.1904 365.968 53.1904C363.778 53.1904 361.815 52.778 360.078 51.9492C358.34 51.1204 357.068 49.9534 356.27 48.4483L359.728 46.3411C361.049 48.4648 363.169 49.5287 366.096 49.5287C368.002 49.5287 369.426 49.1658 370.369 48.4359C371.311 47.706 371.785 46.7246 371.785 45.4875C371.785 44.7494 371.616 44.1515 371.283 43.6938C370.949 43.2319 370.43 42.832 369.731 42.4897C369.027 42.1474 367.59 41.6815 365.421 41.0959C362.296 40.3743 360.094 39.3805 358.818 38.1063C357.538 36.8363 356.9 35.1456 356.9 33.0343C356.9 30.7086 357.735 28.8407 359.407 27.4345C361.078 26.0284 363.391 25.3232 366.351 25.3232C368.64 25.3232 370.562 25.7768 372.114 26.6799C373.666 27.583 374.806 28.6716 375.523 29.9417L372.089 32.0488C370.719 29.9911 368.772 28.9602 366.248 28.9602C364.812 28.9602 363.597 29.2778 362.601 29.9128C361.605 30.5478 361.111 31.5375 361.111 32.8735C361.111 34.0611 361.547 34.9229 362.416 35.459C363.284 35.9951 364.647 36.4899 366.499 36.9394C369.471 37.7105 371.53 38.428 372.666 39.096C373.802 39.764 374.642 40.5887 375.185 41.5701C375.728 42.5474 376 43.7928 376 45.2979" fill="#123E40"/>
<path d="M118.891 42.0152C118.891 40.5761 118.611 39.4421 118.051 38.6133C117.492 37.7844 116.627 37.1783 115.458 36.7907C114.289 36.4072 112.4 36.2134 109.794 36.2134H103.903V48.1882H108.617C111.556 48.1882 113.688 47.9903 115.005 47.5986C116.327 47.2068 117.302 46.5594 117.936 45.6646C118.57 44.7698 118.887 43.5533 118.887 42.0111M116.784 26.5972C116.784 24.824 116.232 23.5705 115.129 22.8447C114.026 22.119 112.062 21.752 109.238 21.752H103.899V32.098H109.012C111.786 32.098 113.774 31.6568 114.976 30.7661C116.178 29.8795 116.784 28.4899 116.784 26.5972ZM123.699 42.2132C123.699 45.7759 122.563 48.3697 120.291 49.982C118.018 51.5984 114.775 52.4067 110.568 52.4067H99.264V17.6614H109.539C113.783 17.6614 116.845 18.2675 118.722 19.484C120.604 20.6963 121.542 22.7251 121.542 25.5704C121.542 27.8961 121.028 29.6734 120.003 30.8939C118.973 32.1145 117.693 32.9599 116.158 33.4299C118.447 33.7475 120.274 34.5928 121.645 35.966C123.016 37.3391 123.699 39.4215 123.699 42.2173" fill="#123E40"/>
<path d="M99.264 74.245L100.211 73.1192C101.178 74.0182 102.302 74.8099 103.92 74.8099C105.904 74.8099 106.748 73.9481 106.748 72.7687C106.748 72.1172 106.307 71.4492 105.377 71.1152L102.076 69.9358C100.334 69.3214 99.688 68.2452 99.688 67.0658C99.688 64.9546 101.549 63.5979 103.94 63.5979C106.064 63.5979 107.419 64.4061 108.193 65.1979L107.172 66.3236C106.398 65.6185 105.397 65.0741 104.01 65.0741C102.29 65.0741 101.215 65.8824 101.215 66.9215C101.215 67.6266 101.656 68.1874 102.516 68.4885L105.784 69.6513C107.472 70.2492 108.295 71.2719 108.295 72.7316C108.295 75.1233 106.328 76.2862 103.92 76.2862C102.302 76.2862 100.458 75.581 99.264 74.245Z" fill="#123E40"/>
<path d="M111.457 63.9856C111.457 63.3176 111.967 62.8228 112.597 62.8228C113.264 62.8228 113.775 63.3176 113.775 63.9856C113.775 64.6206 113.264 65.1278 112.597 65.1278C111.963 65.1278 111.457 64.6165 111.457 63.9856ZM111.897 67.1731H113.355V76.0966H111.897V67.1731Z" fill="#123E40"/>
<path d="M116.763 78.2405L117.64 77.0982C118.15 77.5188 119.043 78.0302 120.221 78.0302C121.715 78.0302 122.802 77.2714 122.802 75.6715V74.3148C122.398 74.8426 121.517 75.2468 120.641 75.2468C118.163 75.2468 116.512 73.5231 116.512 71.0943C116.512 68.8222 118.179 66.9749 120.587 66.9749C121.447 66.9749 122.308 67.1852 122.818 67.8202V67.1687H124.243V75.7911C124.243 78.1333 122.575 79.4322 120.307 79.4322C118.936 79.4322 117.726 79.0446 116.759 78.2363L116.763 78.2405ZM122.789 72.6077V69.5645C122.37 68.8428 121.559 68.3851 120.612 68.3851C119.118 68.3851 118.01 69.548 118.01 71.0778C118.01 72.7149 119.134 73.8777 120.645 73.8777C121.645 73.8777 122.365 73.3829 122.789 72.6118V72.6077Z" fill="#123E40"/>
<path d="M128.112 67.1687H129.569V68.1913C130.043 67.3996 130.763 66.979 131.817 66.979C133.521 66.979 134.945 68.0718 134.945 70.3562V76.0921H133.488V70.55C133.488 69.1439 132.611 68.4388 131.66 68.4388C130.397 68.4388 129.569 69.3542 129.569 70.4964V76.0921H128.112V67.1687Z" fill="#123E40"/>
<path d="M138.111 71.6599C138.111 68.7569 140.342 66.9961 142.38 66.9961C143.38 66.9961 144.154 67.2765 144.578 67.8744V67.1693H146.035V76.0927H144.578V75.3175C144.207 75.8989 143.347 76.2865 142.31 76.2865C140.041 76.2865 138.111 74.4556 138.111 71.6557V71.6599ZM144.578 73.6845V69.462C144.191 68.8105 143.47 68.4064 142.4 68.4064C141.153 68.4064 139.605 69.5156 139.605 71.664C139.605 73.565 140.852 74.8845 142.38 74.8845C143.31 74.8845 144.17 74.4804 144.578 73.6887V73.6845Z" fill="#123E40"/>
<path d="M149.443 78.2405L150.32 77.0982C150.831 77.5188 151.724 78.0302 152.901 78.0302C154.395 78.0302 155.482 77.2714 155.482 75.6715V74.3148C155.079 74.8426 154.198 75.2468 153.321 75.2468C150.843 75.2468 149.192 73.5231 149.192 71.0943C149.192 68.8222 150.859 66.9749 153.268 66.9749C154.128 66.9749 154.988 67.1852 155.499 67.8202V67.1687H156.923V75.7911C156.923 78.1333 155.256 79.4322 152.988 79.4322C151.617 79.4322 150.407 79.0446 149.439 78.2363L149.443 78.2405ZM155.47 72.6077V69.5645C155.05 68.8428 154.239 68.3851 153.292 68.3851C151.798 68.3851 150.691 69.548 150.691 71.0778C150.691 72.7149 151.814 73.8777 153.325 73.8777C154.325 73.8777 155.046 73.3829 155.47 72.6118V72.6077Z" fill="#123E40"/>
<path d="M160.175 71.5892C160.175 68.8594 162.089 66.979 164.234 66.979C166.835 66.979 168.256 69.0573 168.256 71.2923V71.9603H161.665C161.702 73.7211 163.143 74.8633 164.51 74.8633C165.531 74.8633 166.267 74.4592 166.724 73.8613L167.795 74.7932C167.074 75.7086 165.967 76.2736 164.563 76.2736C162.122 76.2736 160.171 74.4963 160.171 71.5933L160.175 71.5892ZM164.217 68.3851C163.024 68.3851 161.916 69.2841 161.653 70.6902H166.782C166.626 69.4779 165.852 68.3851 164.217 68.3851Z" fill="#123E40"/>
<path d="M176.427 73.1727C176.427 71.9604 177.024 71.0945 177.76 70.48L179.094 69.3708L178.724 68.9502C177.74 67.8245 177.514 67.243 177.514 66.3647C177.514 64.9215 178.724 63.6555 180.411 63.6555C182.186 63.6555 183.346 64.8514 183.346 66.4554C183.346 67.4781 182.82 68.3028 181.679 69.2182L181.206 69.5893L183.281 71.9315L185.689 69.276L186.743 70.245L184.248 73.0078L187.006 76.1211H184.985L183.227 74.1129L182.824 74.5706C181.893 75.5933 181.136 76.2242 179.716 76.2242C177.888 76.2242 176.431 74.9376 176.431 73.181L176.427 73.1727ZM179.749 74.7562C180.646 74.7562 181.136 74.315 181.963 73.3995L182.297 73.0284L179.996 70.3893L179.049 71.1646C178.345 71.7295 177.958 72.2367 177.958 72.9954C177.958 74.1212 178.818 74.7562 179.749 74.7562ZM180.313 68.5626L180.91 68.0884C181.404 67.7007 181.893 67.1399 181.893 66.3977C181.893 65.6555 181.383 64.9916 180.416 64.9916C179.588 64.9916 178.991 65.6596 178.991 66.3482C178.991 66.8925 179.185 67.2966 179.765 67.9688L180.309 68.5667L180.313 68.5626Z" fill="#123E40"/>
<path d="M195.264 63.7749H200.113C202.29 63.7749 203.311 65.4285 203.311 67.0325C203.311 68.0882 202.768 69.1603 201.887 69.5685C202.941 70.0427 203.678 71.2386 203.678 72.4922C203.678 74.7972 202.097 76.1003 199.866 76.1003H195.264V63.779V63.7749ZM201.78 67.0655C201.78 66.1171 201.059 65.2883 199.969 65.2883H196.77V68.8428H199.878C200.969 68.8428 201.776 67.9975 201.776 67.0655H201.78ZM202.13 72.5045C202.13 71.3623 201.199 70.3561 199.952 70.3561H196.77V74.5787H200.039C201.286 74.5787 202.13 73.6096 202.13 72.5004V72.5045Z" fill="#123E40"/>
<path d="M207.193 67.169H208.65V68.505C208.967 67.7463 209.914 67.0989 211.145 67.0989C211.849 67.0989 212.322 67.2061 212.812 67.5401L212.108 68.9462C211.844 68.7524 211.474 68.6658 211.017 68.6658C209.926 68.6658 208.909 69.3009 208.646 70.8472V76.0924H207.189V67.169H207.193Z" fill="#123E40"/>
<path d="M214.656 71.6599C214.656 68.7569 216.887 66.9961 218.925 66.9961C219.925 66.9961 220.699 67.2765 221.123 67.8744V67.1693H222.58V76.0927H221.123V75.3175C220.752 75.8989 219.892 76.2865 218.855 76.2865C216.587 76.2865 214.656 74.4556 214.656 71.6557V71.6599ZM221.123 73.6845V69.462C220.736 68.8105 220.016 68.4064 218.945 68.4064C217.698 68.4064 216.15 69.5156 216.15 71.664C216.15 73.565 217.398 74.8845 218.925 74.8845C219.855 74.8845 220.715 74.4804 221.123 73.6887V73.6845Z" fill="#123E40"/>
<path d="M226.446 67.1687H227.903V68.1913C228.376 67.3996 229.097 66.979 230.15 66.979C231.855 66.979 233.279 68.0718 233.279 70.3562V76.0921H231.822V70.55C231.822 69.1439 230.945 68.4388 229.994 68.4388C228.73 68.4388 227.903 69.3542 227.903 70.4964V76.0921H226.446V67.1687Z" fill="#123E40"/>
<path d="M236.444 71.6592C236.444 68.7562 238.675 66.9954 240.713 66.9954C241.713 66.9954 242.487 67.2428 242.911 67.7171V63.7749H244.368V76.0962H242.911V75.3209C242.541 75.9024 241.68 76.29 240.643 76.29C238.375 76.29 236.444 74.4591 236.444 71.6592ZM242.911 73.6839V69.4613C242.524 68.8098 241.804 68.4057 240.734 68.4057C239.486 68.4057 237.939 69.5149 237.939 71.6633C237.939 73.5643 239.186 74.8838 240.713 74.8838C241.643 74.8838 242.504 74.4797 242.911 73.688V73.6839Z" fill="#123E40"/>
<path d="M247.793 63.9856C247.793 63.3176 248.304 62.8228 248.934 62.8228C249.601 62.8228 250.111 63.3176 250.111 63.9856C250.111 64.6206 249.601 65.1278 248.934 65.1278C248.3 65.1278 247.793 64.6165 247.793 63.9856ZM248.234 67.1731H249.691V76.0966H248.234V67.1731Z" fill="#123E40"/>
<path d="M253.556 67.1687H255.014V68.1913C255.487 67.3996 256.207 66.979 257.261 66.979C258.965 66.979 260.39 68.0718 260.39 70.3562V76.0921H258.932V70.55C258.932 69.1439 258.056 68.4388 257.105 68.4388C255.841 68.4388 255.014 69.3542 255.014 70.4964V76.0921H253.556V67.1687Z" fill="#123E40"/>
<path d="M263.712 78.2405L264.589 77.0982C265.099 77.5188 265.992 78.0302 267.17 78.0302C268.664 78.0302 269.751 77.2714 269.751 75.6715V74.3148C269.347 74.8426 268.466 75.2468 267.589 75.2468C265.111 75.2468 263.461 73.5231 263.461 71.0943C263.461 68.8222 265.128 66.9749 267.536 66.9749C268.396 66.9749 269.257 67.1852 269.767 67.8202V67.1687H271.191V75.7911C271.191 78.1333 269.524 79.4322 267.256 79.4322C265.885 79.4322 264.675 79.0446 263.708 78.2363L263.712 78.2405ZM269.738 72.6077V69.5645C269.318 68.8428 268.507 68.3851 267.561 68.3851C266.066 68.3851 264.959 69.548 264.959 71.0778C264.959 72.7149 266.083 73.8777 267.594 73.8777C268.594 73.8777 269.314 73.3829 269.738 72.6118V72.6077Z" fill="#123E40"/>
<path d="M280.4 74.245L281.347 73.1192C282.314 74.0182 283.438 74.8099 285.055 74.8099C287.04 74.8099 287.883 73.9481 287.883 72.7687C287.883 72.1172 287.443 71.4492 286.513 71.1152L283.211 69.9358C281.47 69.3214 280.824 68.2452 280.824 67.0658C280.824 64.9546 282.684 63.5979 285.076 63.5979C287.2 63.5979 288.554 64.4061 289.328 65.1979L288.307 66.3236C287.534 65.6185 286.533 65.0741 285.146 65.0741C283.425 65.0741 282.351 65.8824 282.351 66.9215C282.351 67.6266 282.791 68.1874 283.652 68.4885L286.92 69.6513C288.608 70.2492 289.431 71.2719 289.431 72.7316C289.431 75.1233 287.464 76.2862 285.055 76.2862C283.438 76.2862 281.594 75.581 280.4 74.245Z" fill="#123E40"/>
<path d="M293.033 67.169H294.49V67.837C295.001 67.2556 295.948 66.9917 296.775 66.9917C299.023 66.9917 300.957 68.6617 300.957 71.6555C300.957 74.6492 299.097 76.2656 296.775 76.2656C295.738 76.2656 294.877 75.8615 294.49 75.3172V79.2758H293.033V67.169ZM299.463 71.6555C299.463 69.4205 297.952 68.3978 296.668 68.3978C295.631 68.3978 294.91 68.7483 294.49 69.3999V73.676C294.894 74.4678 295.754 74.8554 296.689 74.8554C298.216 74.8554 299.463 73.643 299.463 71.6513V71.6555Z" fill="#123E40"/>
<path d="M303.592 71.5892C303.592 68.8594 305.506 66.979 307.651 66.979C310.252 66.979 311.672 69.0573 311.672 71.2923V71.9603H305.082C305.119 73.7211 306.56 74.8633 307.926 74.8633C308.947 74.8633 309.684 74.4592 310.141 73.8613L311.211 74.7932C310.491 75.7086 309.384 76.2736 307.98 76.2736C305.539 76.2736 303.588 74.4963 303.588 71.5933L303.592 71.5892ZM307.634 68.3851C306.44 68.3851 305.333 69.2841 305.07 70.6902H310.199C310.042 69.4779 309.268 68.3851 307.634 68.3851Z" fill="#123E40"/>
<path d="M314.307 71.6221C314.307 68.9459 316.221 66.9749 318.683 66.9749C320.16 66.9749 321.194 67.5893 321.865 68.5047L320.741 69.3665C320.284 68.7686 319.563 68.3975 318.666 68.3975C317.069 68.3975 315.801 69.7005 315.801 71.618C315.801 73.5355 317.065 74.855 318.666 74.855C319.563 74.855 320.263 74.4674 320.741 73.886L321.848 74.7643C321.128 75.6962 320.144 76.2612 318.687 76.2612C316.209 76.2612 314.311 74.2901 314.311 71.6139L314.307 71.6221Z" fill="#123E40"/>
<path d="M324.586 63.9856C324.586 63.3176 325.096 62.8228 325.726 62.8228C326.393 62.8228 326.903 63.3176 326.903 63.9856C326.903 64.6206 326.393 65.1278 325.726 65.1278C325.092 65.1278 324.586 64.6165 324.586 63.9856ZM325.026 67.1731H326.483V76.0966H325.026V67.1731Z" fill="#123E40"/>
<path d="M329.731 71.6599C329.731 68.7569 331.962 66.9961 334 66.9961C335 66.9961 335.774 67.2765 336.198 67.8744V67.1693H337.655V76.0927H336.198V75.3175C335.828 75.8989 334.967 76.2865 333.93 76.2865C331.662 76.2865 329.731 74.4556 329.731 71.6557V71.6599ZM336.198 73.6845V69.462C335.811 68.8105 335.091 68.4064 334.02 68.4064C332.773 68.4064 331.225 69.5156 331.225 71.664C331.225 73.565 332.473 74.8845 334 74.8845C334.93 74.8845 335.791 74.4804 336.198 73.6887V73.6845Z" fill="#123E40"/>
<path d="M341.521 63.7749H342.978V76.0962H341.521V63.7749Z" fill="#123E40"/>
<path d="M346.407 63.9856C346.407 63.3176 346.917 62.8228 347.547 62.8228C348.214 62.8228 348.724 63.3176 348.724 63.9856C348.724 64.6206 348.214 65.1278 347.547 65.1278C346.913 65.1278 346.407 64.6165 346.407 63.9856ZM346.847 67.1731H348.305V76.0966H346.847V67.1731Z" fill="#123E40"/>
<path d="M351.289 74.7028L352.257 73.6637C352.837 74.3688 353.924 74.9296 355.085 74.9296C356.175 74.9296 356.875 74.509 356.875 73.7502C356.875 73.1853 356.505 72.8513 355.998 72.6781L353.487 71.8163C352.347 71.4287 351.66 70.6369 351.66 69.5978C351.66 68.0144 353.207 66.9917 354.961 66.9917C356.155 66.9917 357.386 67.3793 358.316 68.4185L357.316 69.3875C356.772 68.7195 355.858 68.3484 354.875 68.3484C353.998 68.3484 353.1 68.7195 353.1 69.4906C353.1 70.0184 353.471 70.2988 353.998 70.4761L356.299 71.2679C357.53 71.6885 358.32 72.3771 358.32 73.643C358.32 75.1935 357.11 76.2821 354.982 76.2821C353.594 76.2821 352.154 75.7378 351.293 74.6987L351.289 74.7028Z" fill="#123E40"/>
<path d="M362.585 74.1746V68.5789H360.6V67.1727H362.585V64.4099L364.042 63.7749V67.1727H366.413V68.5789H364.042V73.6839C364.042 74.4426 364.499 74.6694 365.026 74.6694H366.047V76.0962H364.676C363.605 76.0962 362.585 75.6549 362.585 74.1787V74.1746Z" fill="#123E40"/>
<path d="M368.965 74.7028L369.932 73.6637C370.513 74.3688 371.6 74.9296 372.76 74.9296C373.851 74.9296 374.551 74.509 374.551 73.7502C374.551 73.1853 374.181 72.8513 373.674 72.6781L371.163 71.8163C370.023 71.4287 369.336 70.6369 369.336 69.5978C369.336 68.0144 370.883 66.9917 372.637 66.9917C373.831 66.9917 375.062 67.3793 375.992 68.4185L374.992 69.3875C374.448 68.7195 373.534 68.3484 372.551 68.3484C371.674 68.3484 370.776 68.7195 370.776 69.4906C370.776 70.0184 371.147 70.2988 371.674 70.4761L373.975 71.2679C375.206 71.6885 375.996 72.3771 375.996 73.643C375.996 75.1935 374.786 76.2821 372.658 76.2821C371.27 76.2821 369.83 75.7378 368.969 74.6987L368.965 74.7028Z" fill="#123E40"/>
</svg>
