<svg width="259" height="87" viewBox="0 0 259 87" fill="none" xmlns="http://www.w3.org/2000/svg">
<path d="M12.1259 49.2386C15.2036 52.3004 18.1973 52.9696 20.8545 53.5719C23.4782 54.1575 25.9504 54.7263 28.7591 57.5204C32.0723 60.8163 33.115 63.5434 34.0232 65.9359L34.3091 66.6721C34.8304 68.3954 35.7723 69.9848 37.0504 71.2731C41.3054 75.5059 48.2345 75.5059 52.4727 71.2731C56.7277 67.0402 56.7277 60.1638 52.4727 55.9309C51.1777 54.6427 49.58 53.7057 47.9823 53.2373L47.0909 52.9027C44.6859 51.9992 41.9445 50.9619 38.6314 47.6659C35.8227 44.8719 35.2509 42.4125 34.6623 39.8025C34.0568 37.1757 33.3841 34.1809 30.3064 31.1192C25.2945 26.1334 17.1209 26.1334 12.1091 31.1192C7.09727 36.105 7.09727 44.2361 12.1091 49.2219L12.1259 49.2386Z" fill="#C6D92C"/>
<path d="M45.1232 12.5481C39.4218 12.5481 34.78 17.1491 34.78 22.8375C34.78 28.526 39.405 33.1269 45.1232 33.1269C50.8414 33.1269 55.4664 28.526 55.4664 22.8375C55.4664 17.1491 50.8414 12.5481 45.1232 12.5481Z" fill="white"/>
<path d="M99.2273 41.5761C99.2273 41.5761 96.6205 40.8901 94.9218 42.1784C93.2736 43.4165 92.9373 46.2273 92.9373 48.3521V55.9813H90.0782V48.3521C90.0782 35.9378 100.051 38.849 100.051 38.849L99.2441 41.5761H99.2273Z" fill="#C6D92C"/>
<path d="M219.09 41.6764C219.09 41.6764 216.484 40.9905 214.785 42.2787C213.137 43.5168 212.8 46.3276 212.8 48.4524V56.0816H209.941V48.4524C209.941 36.0382 219.915 38.9493 219.915 38.9493L219.107 41.6764H219.09Z" fill="#C6D92C"/>
<path d="M126.91 38.5813C125.968 38.5813 124.942 38.8825 123.967 39.4178C121.881 40.5388 120.048 43.0484 120.048 48.3521V55.9813H122.907V48.3521C122.907 46.2273 123.26 43.4332 124.892 42.1784C125.497 41.71 126.22 41.4423 126.893 41.4423C127.566 41.4423 128.289 41.7267 128.895 42.1784C130.543 43.4165 130.879 46.2273 130.879 48.3521V55.9813H133.738V48.3521C133.738 43.0484 131.922 40.5388 129.82 39.4178C128.844 38.8825 127.818 38.5813 126.876 38.5813H126.91Z" fill="#C6D92C"/>
<path d="M86.7145 49.4061C86.7145 51.6982 85.9745 53.3712 84.4945 54.4253C83.0145 55.4626 80.9123 55.9812 78.1709 55.9812H70.8214V33.562H77.4982C80.2564 33.562 82.2409 33.9468 83.4686 34.7332C84.6964 35.5195 85.3018 36.8245 85.3018 38.6649C85.3018 40.1707 84.9654 41.3084 84.2927 42.0947C83.62 42.8811 82.7959 43.4332 81.7868 43.7343C83.2668 43.9351 84.4609 44.4872 85.3523 45.3739C86.2436 46.2607 86.6809 47.5991 86.6809 49.4061H86.7145ZM82.2241 39.3341C82.2241 38.1964 81.8709 37.3766 81.1477 36.9082C80.4245 36.4397 79.1632 36.2055 77.3132 36.2055H73.8486V42.8811H77.1618C78.9614 42.8811 80.2563 42.5966 81.03 42.0278C81.8036 41.4589 82.2073 40.5555 82.2073 39.3341H82.2241ZM83.5863 49.2722C83.5863 48.3353 83.4014 47.6159 83.0482 47.0805C82.695 46.5451 82.1232 46.1603 81.3664 45.9093C80.6095 45.6584 79.3818 45.5412 77.6832 45.5412H73.8486V53.2709H76.9095C78.8268 53.2709 80.2059 53.137 81.0636 52.8861C81.9213 52.6351 82.5604 52.2168 82.9641 51.6312C83.3677 51.0457 83.5863 50.2761 83.5863 49.2722Z" fill="#C6D92C"/>
<path d="M112.598 55.9812V53.8564C111.723 54.6093 110.849 55.2451 109.974 55.7303C109.1 56.2322 108.107 56.4831 106.997 56.4831C105.366 56.4831 104.105 55.9812 103.23 54.9941C102.339 54.007 101.901 52.7354 101.901 51.1962C101.901 50.0251 102.137 49.0547 102.591 48.2851C103.045 47.5154 103.718 46.8964 104.592 46.4614C105.467 46.0264 106.728 45.6918 108.393 45.491L112.598 45.1229V44.3031C112.598 42.9981 112.228 42.1114 111.505 41.6262C110.765 41.1577 109.755 40.9068 108.46 40.9068C107.317 40.9068 106.425 41.1076 105.803 41.5091C105.181 41.9106 104.727 42.3456 104.458 42.7974L102.154 41.4087C102.675 40.4718 103.465 39.7524 104.542 39.2504C105.618 38.7485 106.93 38.4976 108.528 38.4976C110.983 38.4976 112.732 38.9326 113.809 39.8193C114.868 40.706 115.406 42.2452 115.406 44.4202V55.9645H112.598V55.9812ZM112.598 47.3649L109.856 47.6326C108.006 47.7999 106.695 48.1512 105.938 48.7033C105.181 49.2554 104.794 50.0753 104.794 51.146C104.794 52.2168 105.046 52.886 105.551 53.3377C106.055 53.7727 106.829 54.007 107.855 54.007C108.275 54.007 108.696 53.9233 109.116 53.7727C109.537 53.6222 109.94 53.4214 110.344 53.1872C110.748 52.9529 111.135 52.6853 111.505 52.4008C111.875 52.0997 112.245 51.8152 112.598 51.5308V47.3816V47.3649Z" fill="#C6D92C"/>
<path d="M149.177 55.9812V54.2914C148.538 54.9105 147.765 55.4291 146.856 55.8474C145.948 56.2657 144.99 56.4832 143.98 56.4832C141.929 56.4832 140.348 55.7135 139.221 54.1743C138.094 52.6351 137.539 50.4433 137.539 47.6158C137.539 44.7884 138.145 42.6301 139.355 40.9737C140.566 39.3174 142.248 38.4976 144.401 38.4976C146.133 38.4976 147.714 39.1166 149.16 40.3714V31.8555H151.986V55.9812H149.16H149.177ZM149.177 42.8141C147.697 41.5928 146.217 40.9905 144.788 40.9905C143.51 40.9905 142.484 41.5259 141.676 42.5799C140.869 43.6507 140.465 45.307 140.465 47.5657C140.465 51.8487 141.828 53.9903 144.535 53.9903C145.427 53.9903 146.268 53.7728 147.092 53.321C147.899 52.886 148.605 52.3674 149.194 51.7985V42.8141H149.177Z" fill="#C6D92C"/>
<path d="M184.512 55.9812H180.913L176.658 38.0291L172.386 55.9812H168.855L163.523 33.562H166.517L170.721 51.6647L174.993 33.562H178.39L182.73 51.7985L187.001 33.562H189.945L184.512 55.9812Z" fill="#C6D92C"/>
<path d="M206.325 47.5323C206.325 50.4769 205.686 52.7188 204.408 54.2246C203.13 55.7304 201.28 56.5 198.825 56.5C196.369 56.5 194.519 55.7471 193.224 54.2581C191.929 52.769 191.29 50.5271 191.29 47.549C191.29 44.5709 191.946 42.2454 193.241 40.7563C194.536 39.2673 196.403 38.5144 198.841 38.5144C201.28 38.5144 203.164 39.2673 204.425 40.7898C205.686 42.3123 206.325 44.5542 206.325 47.5323ZM203.433 47.5323C203.433 45.2234 203.046 43.5504 202.289 42.4963C201.532 41.4423 200.372 40.9236 198.841 40.9236C197.311 40.9236 196.1 41.4423 195.343 42.4963C194.586 43.5504 194.2 45.2234 194.2 47.5323C194.2 49.8411 194.57 51.3804 195.293 52.4511C196.016 53.5219 197.21 54.0573 198.841 54.0573C200.473 54.0573 201.549 53.5219 202.306 52.4679C203.063 51.4138 203.433 49.7575 203.433 47.5323Z" fill="#C6D92C"/>
<path d="M232.932 55.9812L227.516 48.352L225.683 50.3764V55.9812H222.875V31.8555H225.683V46.9132L232.612 38.9828H236.043L229.232 46.4112L236.396 55.9645H232.932V55.9812Z" fill="#C6D92C"/>
<path d="M250.625 51.3971C250.625 52.9865 250.053 54.2246 248.926 55.1281C247.799 56.0315 246.185 56.4832 244.099 56.4832C242.67 56.4832 241.408 56.2156 240.265 55.6802C239.121 55.1448 238.314 54.3919 237.792 53.4215L240.046 52.0663C240.904 53.4383 242.283 54.1242 244.183 54.1242C245.428 54.1242 246.353 53.89 246.958 53.4215C247.564 52.9531 247.883 52.3173 247.883 51.5142C247.883 51.0458 247.782 50.6609 247.564 50.3598C247.345 50.0586 247.009 49.8077 246.555 49.5902C246.1 49.3727 245.159 49.0715 243.746 48.6867C241.711 48.2183 240.281 47.5825 239.457 46.7627C238.633 45.9429 238.213 44.8554 238.213 43.4834C238.213 41.9777 238.751 40.7731 239.844 39.8696C240.937 38.9661 242.434 38.5144 244.351 38.5144C245.831 38.5144 247.093 38.7988 248.102 39.3844C249.111 39.97 249.851 40.6727 250.322 41.4925L248.085 42.8477C247.194 41.5259 245.932 40.8567 244.284 40.8567C243.342 40.8567 242.569 41.0575 241.913 41.4758C241.274 41.894 240.937 42.5298 240.937 43.3831C240.937 44.1527 241.223 44.7048 241.778 45.0561C242.35 45.4075 243.225 45.7254 244.435 46.0098C246.37 46.5117 247.698 46.9634 248.438 47.3984C249.178 47.8334 249.716 48.3688 250.07 48.9879C250.423 49.6236 250.591 50.4267 250.591 51.3971H250.625Z" fill="#C6D92C"/>
</svg>
