<?xml version="1.0" encoding="UTF-8"?>
<svg id="Layer_2" data-name="Layer 2" xmlns="http://www.w3.org/2000/svg" viewBox="0 0 354.33 112.21">
  <defs>
    <style>
      .cls-1 {
        fill: #043d40;
      }

      .cls-2 {
        fill: #c6d92c;
      }
    </style>
  </defs>
  <g id="Layer_1-2" data-name="Layer 1">
    <g>
      <path class="cls-1" d="M6.79,66.51c5.55,5.55,10.96,6.77,15.73,7.86,4.72,1.07,9.18,2.09,14.25,7.16,5.98,5.98,7.85,10.91,9.49,15.27l.52,1.34c.93,3.13,2.64,6.01,4.96,8.33,7.67,7.67,20.15,7.67,27.82,0,7.67-7.67,7.67-20.15,0-27.82-2.32-2.32-5.2-4.04-8.08-4.87l-1.6-.61c-4.35-1.64-9.27-3.51-15.26-9.49-5.07-5.07-6.09-9.53-7.16-14.25-1.08-4.77-2.31-10.18-7.86-15.73-9.05-9.05-23.77-9.05-32.82,0-9.05,9.05-9.05,23.77,0,32.82Z"/>
      <path class="cls-2" d="M66.26,0c-10.29,0-18.64,8.35-18.64,18.64s8.35,18.64,18.64,18.64,18.64-8.35,18.64-18.64S76.55,0,66.26,0Z"/>
      <g>
        <path class="cls-1" d="M150.8,53.82s-3.5-.93-5.79,.82c-2.21,1.68-2.67,5.46-2.67,8.33v10.32h-3.85v-10.32c0-16.77,13.4-12.84,13.4-12.84l-1.08,3.69h0Z"/>
        <path class="cls-1" d="M311.92,53.95s-3.5-.93-5.79,.82c-2.21,1.68-2.67,5.46-2.67,8.33v10.32h-3.85v-10.32c0-16.77,13.4-12.84,13.4-12.84l-1.08,3.69h0Z"/>
        <path class="cls-1" d="M188,49.77c-1.26,0-2.64,.41-3.96,1.12-2.81,1.53-5.26,4.91-5.26,12.08v10.32h3.85v-10.32c0-2.87,.46-6.65,2.67-8.33,.82-.62,1.78-1.01,2.7-1.01s1.88,.38,2.7,1.01c2.21,1.68,2.67,5.46,2.67,8.33v10.32h3.85v-10.32c0-7.17-2.45-10.55-5.26-12.08-1.31-.71-2.7-1.12-3.96-1.12Z"/>
        <path class="cls-1" d="M133.96,64.4c0,3.11-.99,5.37-2.98,6.78-1.99,1.41-4.82,2.11-8.49,2.11h-9.87v-30.3h8.98c3.71,0,6.38,.53,8.02,1.59,1.64,1.06,2.46,2.83,2.46,5.31,0,2.03-.45,3.58-1.35,4.64-.9,1.07-2.02,1.8-3.36,2.21,2,.28,3.6,1.01,4.79,2.21,1.2,1.2,1.79,3.01,1.79,5.45Zm-6.04-13.62c0-1.55-.48-2.64-1.45-3.27-.96-.63-2.68-.95-5.14-.95h-4.66v9.02h4.47c2.42,0,4.16-.39,5.21-1.16s1.58-1.98,1.58-3.63Zm1.84,13.44c0-1.26-.24-2.24-.73-2.97s-1.24-1.25-2.27-1.59c-1.02-.34-2.67-.5-4.95-.5h-5.14v10.44h4.12c2.57,0,4.43-.17,5.58-.51,1.15-.34,2.01-.9,2.56-1.69s.83-1.84,.83-3.19Z"/>
        <path class="cls-1" d="M168.77,73.29v-2.87c-1.17,1.02-2.34,1.87-3.52,2.54-1.18,.67-2.52,1.01-4.01,1.01-2.19,0-3.88-.67-5.07-2-1.19-1.34-1.78-3.05-1.78-5.13,0-1.58,.31-2.89,.93-3.93,.62-1.04,1.52-1.87,2.69-2.47s2.88-1.04,5.11-1.3l5.65-.5v-1.12c0-1.77-.49-2.97-1.48-3.61-.99-.64-2.35-.96-4.08-.96-1.55,0-2.74,.27-3.58,.81-.84,.54-1.44,1.12-1.81,1.75l-3.09-1.88c.7-1.27,1.77-2.24,3.21-2.92,1.44-.68,3.22-1.02,5.35-1.02,3.3,0,5.66,.6,7.09,1.8,1.43,1.2,2.15,3.27,2.15,6.22v15.61h-3.77Zm0-11.65l-3.68,.35c-2.5,.22-4.25,.7-5.28,1.46-1.02,.75-1.53,1.85-1.53,3.29s.34,2.36,1.03,2.96c.69,.6,1.71,.9,3.09,.9,.57,0,1.13-.11,1.69-.32,.55-.21,1.1-.47,1.64-.79,.54-.31,1.06-.67,1.57-1.07,.5-.4,1-.79,1.48-1.17v-5.6Z"/>
        <path class="cls-1" d="M217.94,73.29v-2.28c-.86,.83-1.9,1.53-3.11,2.1-1.21,.57-2.5,.85-3.87,.85-2.76,0-4.89-1.04-6.39-3.12-1.5-2.08-2.25-5.03-2.25-8.86s.82-6.74,2.45-8.98c1.63-2.23,3.9-3.35,6.79-3.35,2.32,0,4.45,.85,6.39,2.54v-11.51h3.79v32.6h-3.79Zm0-17.8c-2-1.65-3.97-2.47-5.91-2.47-1.71,0-3.11,.72-4.19,2.16-1.09,1.44-1.63,3.68-1.63,6.73,0,5.79,1.82,8.69,5.47,8.69,1.2,0,2.34-.3,3.43-.9,1.09-.6,2.03-1.28,2.84-2.06v-12.15Z"/>
        <path class="cls-1" d="M265.45,73.29h-4.84l-5.71-24.26-5.74,24.26h-4.75l-7.16-30.3h4.03l5.65,24.47,5.74-24.47h4.58l5.82,24.65,5.74-24.65h3.96l-7.31,30.3Z"/>
        <path class="cls-1" d="M294.76,61.86c0,3.98-.86,7-2.57,9.04-1.72,2.04-4.21,3.07-7.5,3.07s-5.79-1.01-7.53-3.03c-1.74-2.02-2.61-5.05-2.61-9.07s.87-7.16,2.62-9.17c1.74-2.01,4.25-3.02,7.52-3.02s5.8,1.03,7.51,3.08,2.56,5.09,2.56,9.12Zm-3.9,0c0-3.12-.51-5.39-1.54-6.81-1.03-1.42-2.57-2.12-4.63-2.12s-3.69,.71-4.71,2.13c-1.02,1.42-1.53,3.69-1.53,6.8s.49,5.21,1.48,6.66,2.57,2.17,4.76,2.17,3.64-.71,4.65-2.14c1.01-1.43,1.52-3.66,1.52-6.68Z"/>
        <path class="cls-1" d="M330.53,73.29l-7.29-10.31-2.47,2.74v7.57h-3.77V40.69h3.77v20.36l9.33-10.73h4.62l-9.15,10.05,9.63,12.92h-4.66Z"/>
        <path class="cls-1" d="M354.33,67.09c0,2.15-.76,3.83-2.28,5.05-1.52,1.22-3.68,1.83-6.48,1.83-1.91,0-3.63-.36-5.15-1.08s-2.63-1.74-3.33-3.05l3.02-1.84c1.15,1.85,3.01,2.78,5.56,2.78,1.66,0,2.91-.32,3.73-.95,.82-.64,1.24-1.49,1.24-2.57,0-.64-.15-1.16-.44-1.57-.29-.4-.74-.75-1.36-1.05-.61-.3-1.87-.7-3.76-1.21-2.73-.63-4.65-1.5-5.77-2.61-1.12-1.11-1.67-2.58-1.67-4.42,0-2.03,.73-3.66,2.19-4.88s3.48-1.84,6.06-1.84c2,0,3.68,.39,5.03,1.18,1.36,.79,2.35,1.74,2.98,2.85l-3,1.84c-1.2-1.79-2.9-2.69-5.1-2.69-1.26,0-2.32,.28-3.18,.83-.87,.56-1.3,1.42-1.3,2.58,0,1.04,.38,1.79,1.14,2.25,.76,.47,1.95,.9,3.57,1.29,2.6,.67,4.39,1.3,5.39,1.88,.99,.58,1.73,1.3,2.2,2.16,.47,.85,.71,1.94,.71,3.25Z"/>
      </g>
    </g>
  </g>
</svg>