<?xml version="1.0" encoding="utf-8"?>
<!-- Generator: Adobe Illustrator 28.0.0, SVG Export Plug-In . SVG Version: 6.00 Build 0)  -->
<svg version="1.1" id="Layer_1" xmlns="http://www.w3.org/2000/svg" xmlns:xlink="http://www.w3.org/1999/xlink" x="0px" y="0px"
	 viewBox="0 0 1080 467" style="enable-background:new 0 0 1080 467;" xml:space="preserve">
<style type="text/css">
	.st0{fill-rule:evenodd;clip-rule:evenodd;fill:#FFFFFF;}
</style>
<path class="st0" d="M963.17,230.71c-20.44,4.16-38.64,12.28-57.08,27.94c-16.26,12.72-21.85,40.48-2.62,48.94
	c11.15,5.28,23.04,5.72,34.71,9.26c12.33,3.85,15.5,15.14,4.37,22.96c-8.68,5.78-20.94,10.04-33.42,9.96
	c-7.07,0.2-12.23,8.14-15.4,20.19c-3.95,16.45,1.19,18.09,8.66,18.58c24.48-1.42,53.57-18.32,70.17-37.9
	c16.74-17.86,16.45-50.32-5.02-58.93c-9.28-3.6-20.22-6.08-29.48-8.24c-14.92-2.6-16.12-7.07-2.8-12.8
	c6.29-2.42,15.08-5.42,21.66-6.99c8.17-1.85,12.19-5.19,14.9-15.96C977.46,231.79,973.32,227.77,963.17,230.71L963.17,230.71z
	 M340.97,80.2c-99.34,30.76-210.19,139.09-240.66,227.39c-16.1,66.11,8.98,88.53,70.51,78.4c65.29-6.12,117.85-28.06,212.31-12.85
	c35.5,7.89,24.93-12.28,8.77-40.93c-8.9-14.5-38.73-17.62-80.71-12.89c-47.99,8.5-93.73,20.32-139.35,28.73
	c-41.27,8.79-47.87-19.64-19.95-66.1c44.37-69.11,120.43-129.97,171.1-135.11c14.05-0.67,25.31-6.45,34.51-28.61
	C371.35,86.73,368.34,73.42,340.97,80.2L340.97,80.2z M406.89,331.68c-3.4-56.98,1.45-124.11,37.98-216.65
	c4.31-9.59,10.64-11.16,18.98-4.71c5.58,5.53,10.49,11.64,13.33,18.38c5.74,12.13,3.79,23.64-0.65,34.86
	c-20.08,58.25-34.02,121.95-36.56,161.38c0.38,20.5,7.6,32.79,27.51,12.35c36.89-43.28,47.09-80.83,106.99-83.99
	c16.74,0.25,22.02,1.58,19.1,17.88c-2.84,15.89-6.09,37.28-6.39,53.93c-2.16,22.12,7.76,32.59,23.61,17.28
	c14.99-18.65,24.81-52.5,31.69-85.64c1.52-12.44,9-12.62,15.53-6.32c10.11,6.45,20.12,11.52,30.12,13.09
	c8.73,3.49,12.37,11.36,10.36,25.85c-1.06,14.76-0.96,31.45,1.1,46.13c5.49,16,19.72,14.08,31.51-6.22
	c19.05-30.68,35.22-95.32,49.58-196.21c1.75-13.42,6.46-16.65,14.11-9.69c5.03,4.44,9.7,10.84,14.02,19.21
	c6.94,8.38,5.41,15.74,3.99,23.71c-5.14,44.36-11.68,87.84-19.2,131.27c24.59-36.56,48.99-61.42,76.63-82.6
	c10.17-5.35,13.91-0.29,11.15,12.25c-2.08,9.12-4.09,17.52-6.18,26.64c-2.24,9.6-11.44,17.92-17.28,20.82
	c-8.89,5.98-16.46,12.34-21.11,17.97c5.92,19.35,20.08,39.4,40.65,47.64c10.22,2.78,13.07,8.66,8.54,17.64
	c-1.84,6.28-4.5,9.81-7.91,16.13c-6.79,8.14-17.53,6.25-29.02,0.82c-15.91-8.19-28.56-25.7-40.16-52.55
	c-7.42,8.39-11.01,12.92-16.75,23.19c-2.97,10.27-5.39,17.07-8.35,27.34c-3.18,7.51-7.43,8.81-17.45,8.49
	c-9.98-0.11-15.32-3.53-13.33-14.55c1.54-13.35,4.18-28.08,5.72-41.43c-18.48,39.3-40.6,60.12-64.69,55.6
	c-21.21-4.26-31.9-31.34-29.9-85.98l-2.47-0.64c-23.82,92.91-85.51,109.51-100.93,57.29c-30.94,40.94-66.32,36.72-77.01,1.96
	C452.91,389.17,414.52,397.53,406.89,331.68L406.89,331.68z M563.28,284.19c-4.76,38.15-24.91,68.81-37.84,62.03
	c-12.28-6.44-11.33-27.02,4.65-45.42C540.85,288.4,554.27,283.59,563.28,284.19L563.28,284.19z"/>
</svg>
