<?xml version="1.0" encoding="utf-8"?>
<!-- Generator: Adobe Illustrator 28.0.0, SVG Export Plug-In . SVG Version: 6.00 Build 0)  -->
<svg version="1.1" id="Layer_1" xmlns="http://www.w3.org/2000/svg" xmlns:xlink="http://www.w3.org/1999/xlink" x="0px" y="0px"
	 viewBox="0 0 1776.01 1121.17" style="enable-background:new 0 0 1776.01 1121.17;" xml:space="preserve">
<style type="text/css">
	.st0{fill:#FFFFFF;}
	.st1{fill-rule:evenodd;clip-rule:evenodd;fill:#FFFFFF;}
</style>
<path class="st0" d="M909.07,351.8c-14.62,0.4-18.5,3.63-21.5,15.33c-3.01,11.7-12.04,35.1-3.01,46.4
	c5.55,6.95,19.51,21.7,29.61,14.65c9.81-6.85,7.96-29.17,11-39.13C930.87,370.33,930.27,359.4,909.07,351.8L909.07,351.8z
	 M1414.31,355.85c-13.79,6.05-16.48,11.32-15.73,26.25c0.74,14.92-0.64,45.91,11.43,55.77c7.43,6.07,25.25,18.11,32.69,5.95
	c7.22-11.8-1.41-37.37-1.59-50.25C1440.76,369.35,1436.82,356.72,1414.31,355.85L1414.31,355.85z M1676.2,508.86
	c-11.09-3.4-21.12,20.99-25.12,27.78c-12.04,20.45-38.42,46-40.71,47.34c-2.3,1.35-48.46,35.78-77.13,43.31
	c0,0-9.46-25.82-12.32-38.73c-7.75-34.88-18.04-76.36,18.28-101.41c10.35-7.14,24.12-11.22,30.03-21.93
	c1.92-3.47,2.79-7.66,1.3-11.32c-1.91-4.71-7.16-7.42-12.21-9.17c-7.8-2.7-16.48-4.07-24.41-1.76c-6.19,1.81-11.41,5.69-16.27,9.7
	c-12.12,10.01-22.96,21.37-32.22,33.78c-7.64,10.24-14.34,21.31-24.15,29.78c-4.34,3.74-9.48,6.91-14.98,8.96
	c-3.46,1.29-5.67,4.38-5.79,8.06l-0.09,2.6c-0.1,2.94,1.1,5.51,3.41,7.33c2.32,1.82,5.11,2.37,7.94,1.56
	c6.39-1.8,13.23-4.51,18.45-7.42c3.86-2.15,8.82,0,9.5,4.18c1.11,6.82,2.86,16.21,5.38,25.8c5.86,22.3,12.36,44.65,15.74,67.43
	c0.48,3.28,0.87,6.8-0.78,9.73c-2.31,4.1-7.63,5.54-12.05,7.62c-7.63,3.58-13.39,9.85-18.58,16.21c-7.34,9-14.08,18.72-17.31,29.64
	c-3.23,10.92-2.59,23.29,4.03,32.77c2.05,2.95,4.73,5.63,8.16,7.05c4.03,1.67,8.64,1.45,13.03,0.98
	c10.79-1.16,21.8-3.83,30.23-10.27c7.84-5.99,12.73-14.69,16.55-23.46c6.69-15.33,12.18-33.23,12.15-49.94
	c-0.01-5.95-1.02-5.04,3.03-8.27c2.84-2.28,7.65-3.65,10.97-5.27c20.59-10.06,42.81-20.29,60.42-34.69
	c20.07-16.41,55.05-42.23,68.52-78.01C1681.65,522.25,1687.25,512.25,1676.2,508.86L1676.2,508.86z M1482.63,715.93
	c-9.89,6.86-17.2,11.3-14.2-10.49c3.01-21.79,32.26-40.75,32.26-40.75C1504.02,681.81,1492.52,709.07,1482.63,715.93L1482.63,715.93
	z M1404.11,581.59c-0.39-0.09-0.78-0.2-1.17-0.31c-20.07-5.76-7.18-43.45-7-57.07c0.38-30.49-6-61.05-18.7-89.11
	c-8.82-19.48-29.75-33.36-52.67-24.03c-14.49,5.9-24.41,19.41-28.13,33.82s-1.89,29.63,2.06,43.98c1.96,7.11,4.46,14.23,5.22,21.49
	c0.14,1.38-0.3,2.64-1.29,3.62c-0.98,0.99-2.23,1.43-3.61,1.29c-3.81-0.39-7.63-0.32-11.03,1.21c-4.4,1.97-7.28,6.03-9.67,10.02
	c-16.64,27.76-20.22,60.1-32.04,89.6c-12.48,31.18-37.23,59.02-63.8,80.67c-6.67,5.44-14.57,10.6-23.39,10.36
	c-9.98-0.27-18.48-7.66-22.53-16.23c-4.05-8.57-4.54-18.19-4.97-27.55c-0.63-13.94-1.27-27.88-1.9-41.81
	c-0.42-9.08-0.71-18.69,3.98-26.65c5.71-9.7,17.33-14.62,26.9-21.11c17.04-11.54,28.15-29.93,31.3-49.3
	c2.09-12.87,2-29.86-10.83-38.02c-15.44-9.82-38.49-1.5-51.84,8.08c-12.31,8.84-21.16,21.59-25.91,35.44
	c-3.94,11.52-5.13,23.68-7.17,35.62c-5.17,30.31-15.86,59.52-26.51,88.55c-8.46,23.09-16.95,46.22-27.75,68.45
	c-6.96,14.34-15.08,28.54-27.39,39.3c-0.66,0.58-1.42,1.08-2.28,1.38c-4.82,1.71-7.91-3.32-9.3-7.44
	c-11.72-35.02-12.86-75.21-13.35-111.76c-0.27-20.14-0.46-40.29-0.32-60.43c0.16-23.66-2.05-49.32,6.36-72.01
	c3.64-9.83,9.29-18.87,14.64-27.99c12.02-20.5,22.63-41.71,32.34-63.26c21.05-46.74,36.25-95.7,53.06-143.96
	c9.46-27.15,19.01-56.15,11.3-83.78c-3-10.77-8.98-21.3-18.91-27.4c-12.04-7.4-28.33-6.99-41.25-1.05
	c-12.93,5.94-22.75,16.72-29.57,28.61s-10.94,24.95-15.01,37.9c-13.59,43.27-26.35,86.55-35.04,130.95
	c-8.45,43.19-13.07,87.78-14.3,131.63c-1.12,40.63-15.71,81.1-40.53,114.34c-0.45,0.6-0.99,1.15-1.66,1.54
	c-3.8,2.23-7.41-2.08-8.83-5.72c-5.2-13.27-6.33-27.64-6.12-41.78c0.48-32.29,7.68-64.13,15.21-95.64
	c0.99-4.15,1.99-8.47,0.99-12.62c-1.3-5.41-5.89-9.71-11.13-12.28c-5.24-2.56-11.14-3.65-16.94-4.71c-3.09-0.56-6.36-1.11-9.3-0.07
	c-5.2,1.85-7.12,7.69-8.28,12.79c-4.77,21.1-7.73,42.51-10.04,63.95c-3.61,33.53-11.46,65.98-20.28,98.78
	c-10.84,40.35-21.79,80.96-40.25,118.8c-4.69,9.62-10.02,19.24-18.6,26.2c-1.55,1.26-3.54,2.03-5.59,2.01
	c-3.8-0.04-4.99-2.62-5.95-5.03c-3.73-9.36-6.38-19.07-8.68-28.82c-15.29-64.76-15.31-131.73-15.26-198.06
	c0-6.43,0.01-12.93,1.65-19.18c3.85-14.75,13.54-27.33,21.73-40.17c8.59-13.45,13.78-27.82,19.23-42.71
	c12.03-32.89,22.36-66.3,32.7-99.68c8.45-27.28,16.91-54.64,21.93-82.7c4.13-23.1,9.53-54.83-7.56-74.83
	c-22.08-25.82-53.62-13.72-60.51-6.46c-6.88,7.26-31.82,30.13-44.44,95.5c-12.62,65.37-23.8,150.1-23.8,161.13
	c0,82.92-8.29,163.95-32.66,244.08c-2.92,9.6-6.07,19.25-11.64,27.77c-0.48,0.75-1.2,1.36-2.08,1.64c-2.41,0.78-3.98-1.3-4.91-3.15
	c-4.19-8.34-5.37-17.7-6.06-26.9c-1.35-17.96-1.01-35.99-0.68-53.99c0.57-31.22,1.15-62.44,1.72-93.66
	c0.24-12.88,1.33-32.42-12.32-39.91c-6.98-3.83-25.21-8.83-32.61-3.43c-5.16,3.77-14.05,11.03-17.78,23.4
	c-3.73,12.38-10.03,24.21-13.77,30.66c-3.72,6.46-17.2,37.12-18.91,41.43c-1.73,4.3-17.78,30.13-21.23,34.43
	c-3.44,4.3-10.89,16.95-12.32,5.92s-5.16-42.23,4.88-71.82c6.19-18.26,13.34-36.51,24.64-52.59c6.16-8.77,13.72-17.35,22.66-23.76
	c10.22-7.33,24.34-11.47,36.15-16.49c3.99-1.7,8.11-3.48,10.54-7.14c0.75-1.14,1.24-2.42,1.35-3.75c0.39-5.04-4.08-7.57-8.27-9.17
	c-21.16-8.1-46.15-4.17-65.65,7.03c-19.48,11.19-33.94,28.9-44.3,48c-13.08,24.12-20.23,51.04-20.8,78.09
	c-0.48,22.8-20.03,45.8-33.03,64c-12.84,17.97-26.19,36.43-45.7,48.06c-0.88,0.53-1.91,0.84-2.95,0.8
	c-4.07-0.17-4.55-4.82-4.23-8.27c3.16-33.78,0.22-69.96-8.03-103.02c-7.74-31.2-10.6-57.56-12.04-69.4
	c-1.43-11.83-23.23-29.59-36.7-28.78c-13.46,0.8-13.47,12.35-13.47,16.13c0,20.53,1.55,40.23-3.14,60.42
	c-6.99,30.08-17.73,59.4-31.95,87.16c-8.49,16.57-18.57,32.99-33.8,44.55c-9.21,6.99-20.05,11.97-31.39,15.19
	c-6.27,1.78-12.88,3.04-19.35,2.12c-9.36-1.33-17.37-7.04-23.94-13.44c-24.15-23.51-33.64-56.98-38.27-89.34
	c-12.68-88.56,5.86-176.73,47.7-256.47c16.55-31.54,36.99-62.08,64.24-86.48c5.94-5.32,12.25-10.45,19.68-13.69
	c5.63-2.46,11.75-3.77,17.8-5.07c6.14-1.31,12.27-2.62,18.4-3.93c1.06-0.23,2.15-0.46,3.12-0.92c1.32-0.63,2.39-1.69,2.8-3.71
	c0.47-2.33-0.3-4.73-1.88-6.58c-12.81-14.97-36.04-18.21-55.45-13c-40.81,10.94-73.57,48.6-94.28,81.43
	c-19.54,30.98-32.68,66.29-43.95,100.52C93.05,450,83.37,531.03,105.68,610c7.73,27.36,20.89,54.78,41.96,75.45
	c4.66,4.58,9.71,8.84,15.07,12.7c10.16,7.31,21.78,13.31,34.46,14.94c12.46,1.59,25.21-1.17,36.7-5.98
	c23.76-9.94,44.23-26.21,59.33-45.99c3.58-4.69,6.9-9.56,9.95-14.56c13.48-22.04,22.7-46.04,32.83-69.63
	c0.81-1.9,2.75-2.97,4.8-2.65c2.04,0.32,3.56,1.94,3.75,4c1.16,12.56,1.9,25.17,2.8,37.73c0.97,13.72,1.36,27.41,2.07,41.12
	c0.72,13.9,4.55,29.21-3.11,42.08c-3.96,6.66-10.52,11.55-16.78,16.41c-25.57,19.85-49.27,42.92-63.04,71.24
	c-4.2,8.64-7.45,18.47-4.38,27.52c1.83,5.4,5.77,9.97,10.2,13.82c11.72,10.19,27.53,16.12,43.5,16.34
	c15.98,0.22,31.96-5.28,44-15.14c19.22-15.74,26.95-40.4,31.05-64.02c3-17.24,4.56-34.69,4.67-52.16c0.02-3.13,0.03-6.41,1.63-9.16
	c1.18-2.04,3.13-3.58,5.01-5.09c29.83-23.89,55.26-52.59,74.88-84.45c0.88-1.43,2.35-2.2,4.02-2.12c1.67,0.08,3.07,1,3.79,2.5
	c2.52,5.16,6.02,10.73,7.12,12.41c4.3,6.58,10.71,13.8,19.71,13.8c16.17,0,25.5-10.54,33.82-22.45
	c17.48-25.01,28.68-53.3,42.82-80.11c2.55-4.82,10.29-3.22,10.47,2.16c1.59,46.73-0.31,93.93,12.06,139.11
	c3.05,11.16,7.18,22.46,15.4,31.01c8.22,8.56,21.45,13.76,33.09,10.1c11.37-3.57,18.42-14.42,21.67-25.25
	c3.75-12.52,5.52-25.93,8.09-38.72c1.33-6.64,2.33-15.63,4.56-23.62c1.48-5.3,9.57-5.06,10.76,0.3c2.01,9.07,2.43,19.13,3.26,27.22
	c1.43,13.99,2.16,28.04,4.03,41.99c3.7,27.55,14.7,69.21,47.39,77.63c48.13,12.39,59.73-51.7,68.4-81.3
	c9.77-33.36,19.54-66.72,29.31-100.08c0.52-1.76,1.95-2.97,3.77-3.18c1.82-0.21,3.5,0.64,4.4,2.23c2.71,4.79,5.7,9.42,9.32,13.63
	c8.13,9.46,19.39,15.48,32.44,16.06c12.99,0.58,22.24-10.55,29.6-22.05c2.87-4.48,10.17-2.65,10.27,2.57
	c0.72,37.06,4.18,74.07,10.34,110.67c2.93,17.4,6.81,35.44,18.29,49.38c11.48,13.94,32.79,22.32,49.64,14.54
	c14.23-6.58,20.86-21.86,26.3-35.85c11.45-29.44,24.17-61.45,36.53-91.5c1.3-3.15,6.15-2.5,6.57,0.85c0,0.04,0.01,0.08,0.01,0.12
	c0.82,5.63,1.56,11.26,2.82,16.82c2.55,11.21,6.77,22.36,15.14,30.96c7.3,7.51,17.21,12.49,27.56,15.47
	c33.45,9.63,53.48-8.97,73.49-31.37c7.52-8.42,14.8-17.03,21.87-25.79c3.68-4.57,7.31-9.18,10.88-13.83
	c0.02-0.03,0.04-0.05,0.06-0.08c3.42-4.37,10.68-3.23,12.48,1.92c2.93,8.36,7.62,16.83,11.95,22.8
	c12.45,17.16,40.97,29.46,61.25,16.32c6.78-4.39,11.21-11.23,15.28-17.95c14.24-23.55,26.38-48.21,36.28-73.64
	c0.83-2.13,3.11-3.29,5.33-2.69c4.36,1.18,8.73,2.36,13.12,3.41c1.36,0.33,2.66,0.05,3.77-0.8s1.71-2.04,1.74-3.44l0.19-8.65
	C1407.57,583.91,1406.17,582.09,1404.11,581.59L1404.11,581.59z M1150.8,538.56c2.81-4.62,5.63-9.27,8.99-13.56
	c2.17-2.78,5.72-8.36,7.8-5.16c0.29,0.44,0.55,1.05,0.77,1.86c2.04,7.33-3.44,17.83-7.4,23.81c-4.04,6.11-9.22,11.45-14.7,16.5
	c-1.5,1.39-4.09,0.39-4.04-1.59C1142.42,552.81,1146.67,545.35,1150.8,538.56L1150.8,538.56z M995.48,442.62
	C995.48,442.62,995.48,442.61,995.48,442.62c13.12-91.98,25.08-173.71,66.85-257.82c1.41-2.85,3.38-6.05,6.71-6.43
	c23.84-2.7,7.41,64.69,4.48,75.79c-17.12,64.76-34.71,132.5-72.69,190.25C999.18,446.91,995.07,445.54,995.48,442.62L995.48,442.62z
	 M747.4,445.21c6.16-92.62,11.92-174.93,47.25-261.6c1.2-2.93,2.92-6.26,6.21-6.86c23.57-4.27,12.27,64.03,10.18,75.3
	c-12.2,65.74-24.64,134.47-58.17,194.6C751.42,449.25,747.2,448.15,747.4,445.21C747.4,445.21,747.4,445.21,747.4,445.21
	L747.4,445.21z M344.8,771.43c-5.16,22.59-10.75,31.88-29.36,45.19c-18.6,13.31-27.41,5.65-29.13-2.42
	c-1.73-8.07,6.88-26.23,16.34-39.14c9.46-12.91,28.82-30.26,42.15-35.91C344.8,739.15,349.96,748.83,344.8,771.43L344.8,771.43z
	 M1362.15,600.4c-4.93,9.87-8.38,20.01-13.04,29.99c-6.88,14.76-12.33,30.37-27.15,39.9c-3.25,2.09-7.07,3.89-10.98,3.44
	c-6.29-0.73-10.16-6.79-12.2-12.42c-11.63-32.04-0.27-72.51,15.11-101.76c3.34-6.35,9.23-6.6,14.87-4.51
	c2.16,0.8,4.28,1.95,6.2,3.23c7.89,5.25,15.13,11.31,22.34,17.35c2.54,2.13,5.15,4.34,6.64,7.21
	C1366.77,588.31,1364.91,594.88,1362.15,600.4L1362.15,600.4z M1373.67,541.49c-0.02,0.8-0.03,1.61-0.05,2.41
	c-0.18,6.45-8.51,9.67-13.39,5.13c-6.77-6.3-12-14.14-15.8-22.39c-5.65-12.3-8.37-25.6-10.84-38.8c-2.12-11.4-4.04-23.04-3.16-34.64
	c0.52-6.95,1.4-15.37,5.68-21.29c3.57-4.93,7.59-5.01,11.33-2.98c3.99,2.17,7.66,6.76,10.15,10.39
	c13.12,19.23,15.7,43.04,16.21,65.87C1374.08,517.29,1373.87,529.39,1373.67,541.49L1373.67,541.49z"/>
<path class="st1" d="M481.21,968.98c9.67,0,18.94-6.85,18.94-17.17c0-15-24.19-18.3-24.19-27.09c0-3.63,3.06-6.29,6.45-6.29
	c3.14,0,6.21,2.34,8.46,4.52l7.58-7.98c-4.11-3.87-10.24-6.29-15.97-6.29c-10.16,0-18.54,5.96-18.54,16.29
	c0,16.85,24.27,17.89,24.27,28.13c0,2.58-2.18,6.29-6.94,6.29c-5.96,0-9.27-4.6-12.58-9.27l-9.11,6.29
	C464.91,963.42,471.93,968.98,481.21,968.98L481.21,968.98z M1268.36,968.42l-9.68-22.33c5.48-4.11,8.55-10.16,8.55-16.53
	c0-11.29-9.68-20.24-20.24-20.24H1227v59.1h12.41v-18.46h6.53c0.73,0,1.38-0.08,2.02-0.08l7.66,18.54H1268.36L1268.36,968.42z
	 M1239.42,940.2v-21.04h7.02c5,0,8.95,4.92,8.95,10.48c0,5.8-4.03,10.56-8.79,10.56H1239.42L1239.42,940.2z M1133.06,908.68
	l-24.91,59.74h10.48l3.23-7.98h19.92l3.3,7.98h12.89L1133.06,908.68L1133.06,908.68z M1125.56,951.16l6.29-15.56l6.29,15.56H1125.56
	L1125.56,951.16z M1043.86,948.91c0-7.09-3.95-13.46-9.75-16.93c1.53-2.34,2.5-5.16,2.5-8.14c0-8.06-6.93-14.52-14.59-14.52h-21.12
	v59.1h23.62C1035.16,968.26,1043.86,959.47,1043.86,948.91L1043.86,948.91z M1013.31,958.5v-20.24h9.52c4.11,0,8.3,3.63,8.3,10.08
	c0,6.53-4.19,10.16-8.22,10.16H1013.31L1013.31,958.5z M1021.53,918.75c2.58,0,4.6,2.74,4.6,5.72c0,4.03-2.5,5.89-5.16,5.89h-7.66
	v-11.61H1021.53L1021.53,918.75z M833.18,968.74l10.24-25.56l10.24,25.56h1.77l23.95-59.42h-10.8l-12.74,31.44l-10.48-25.72h-1.45
	l-10.4,25.72l-12.73-31.44h-13.31l23.95,59.42H833.18L833.18,968.74z M714,969.23c16.53,0,30.31-13.46,30.31-30.31
	c0-16.45-13.79-30.32-30.31-30.32c-16.45,0-30.39,13.79-30.39,30.32C683.61,955.36,697.55,969.23,714,969.23L714,969.23z
	 M696.59,938.91c0-9.84,7.25-20.64,17.41-20.64c9.84,0,17.33,10.64,17.33,20.64c0,9.59-7.01,20.64-17.33,20.64
	C704.08,959.55,696.59,949.15,696.59,938.91L696.59,938.91z M600.54,909.32v29.83h-16.85v-29.83h-12.41v59.1h12.41v-19.19h16.85
	v19.19h12.42v-59.1H600.54L600.54,909.32z"/>
<polygon class="st1" points="1335.07,926.17 1338.09,936.01 1347.93,935.99 1339.96,942.06 1343.01,951.89 1335.07,945.79 
	1327.12,951.89 1330.18,942.06 1322.21,935.99 1332.04,936.01 1335.07,926.17 "/>
<polygon class="st1" points="1396.18,926.17 1399.21,936.01 1409.04,935.99 1401.08,942.06 1404.13,951.89 1396.18,945.79 
	1388.24,951.89 1391.3,942.06 1383.33,935.99 1393.17,936.01 1396.18,926.17 "/>
<polygon class="st1" points="1457.41,926.17 1460.43,936.01 1470.27,935.99 1462.3,942.06 1465.36,951.89 1457.41,945.79 
	1449.46,951.89 1452.52,942.06 1444.55,935.99 1454.39,936.01 1457.41,926.17 "/>
<polygon class="st1" points="1457.46,926.17 1460.48,936.01 1470.32,935.99 1462.36,942.06 1465.41,951.89 1457.46,945.79 
	1449.52,951.89 1452.58,942.06 1444.61,935.99 1454.45,936.01 1457.46,926.17 "/>
<polygon class="st1" points="270.5,926.17 273.51,936.01 283.35,935.99 275.38,942.06 278.44,951.89 270.5,945.79 262.55,951.89 
	265.61,942.06 257.64,935.99 267.47,936.01 270.5,926.17 "/>
<polygon class="st1" points="331.62,926.17 334.64,936.01 344.47,935.99 336.5,942.06 339.56,951.89 331.62,945.79 323.67,951.89 
	326.73,942.06 318.76,935.99 328.6,936.01 331.62,926.17 "/>
<polygon class="st1" points="392.84,926.17 395.86,936.01 405.69,935.99 397.72,942.06 400.78,951.89 392.84,945.79 384.89,951.89 
	387.95,942.06 379.98,935.99 389.82,936.01 392.84,926.17 "/>
<polygon class="st1" points="392.89,926.17 395.91,936.01 405.75,935.99 397.78,942.06 400.84,951.89 392.89,945.79 384.95,951.89 
	388.01,942.06 380.04,935.99 389.87,936.01 392.89,926.17 "/>
</svg>
